<svg width="124" height="29" viewBox="0 0 124 29" fill="none" xmlns="http://www.w3.org/2000/svg">
<g clip-path="url(#clip0_245_4260)">
<path d="M0.00165749 7.49988L28 7.49988V0.499879L0.00165749 0.499879V7.49988Z" fill="#E45B5B"/>
<path d="M21 5.16661V28.4999H27.9996V5.16661H21Z" fill="#E45B5B"/>
<path d="M27.9965 11.0001H10.4976V18.0001H27.9965V11.0001Z" fill="#E45B5B"/>
<path d="M27.9983 21.4996H0V28.4996H27.9983V21.4996Z" fill="#E45B5B"/>
<path d="M42.4985 7.50058V28.5H49.4985V7.50058H42.4985Z" fill="#C8C8C8"/>
<path d="M60 0.5L32 0.5V7.49981L60 7.49981V0.5Z" fill="#C8C8C8"/>
<path d="M64.0017 7.5L92 7.5V0.500061L64.0017 0.500061V7.5Z" fill="#C8C8C8"/>
<path d="M85 5.16687V28.5H91.9996V5.16687H85Z" fill="#C8C8C8"/>
<path d="M91.9983 21.4996H64V28.4996H91.9983V21.4996Z" fill="#C8C8C8"/>
<path d="M64 5.16687V28.5H70.9996V5.16687H64Z" fill="#C8C8C8"/>
<path d="M96.0019 7.50006L124 7.50006V0.500122L96.0019 0.500122V7.50006Z" fill="#C8C8C8"/>
<path d="M123.998 21.4997H96V28.4996H123.998V21.4997Z" fill="#C8C8C8"/>
<path d="M96 5.16693V28.5001H103V5.16693H96Z" fill="#C8C8C8"/>
</g>
<defs>
<clipPath id="clip0_245_4260">
<rect width="124" height="28.0001" fill="white" transform="translate(0 0.499939)"/>
</clipPath>
</defs>
</svg>
