<svg width="114" height="35" viewBox="0 0 114 35" fill="none" xmlns="http://www.w3.org/2000/svg">
<path d="M19.3922 17.4836C19.3845 17.4759 19.1991 17.2829 18.8787 17.2829C18.7088 17.2829 18.5351 17.3369 18.3613 17.4373C18.3304 17.4528 18.3111 17.4875 18.3188 17.5223C18.3188 17.53 18.4463 18.3948 18.3498 18.7655C18.2764 19.0435 18.0408 19.3718 17.6122 19.3718C17.5196 19.3718 17.4269 19.3562 17.3265 19.3292H17.3227L17.647 19.1092C17.6702 19.0937 17.6856 19.0667 17.6856 19.0358C17.6856 19.0049 17.6702 18.9817 17.647 18.9624L17.0022 18.5184C17.2069 18.364 17.3342 18.2559 17.3497 18.2404C17.369 18.225 17.3806 18.2018 17.3806 18.1786C17.3806 18.1555 17.3729 18.1323 17.3535 18.113L17.2377 17.9972C17.2223 17.9817 17.1991 17.9702 17.1759 17.9702C17.1566 17.9702 17.1373 17.9779 17.1219 17.9894C17.1142 17.9933 16.9443 18.1245 16.6856 18.3022L16.4269 18.1245L17.4385 17.4296L17.5157 17.6304C17.5273 17.6612 17.5582 17.6844 17.5929 17.6844C17.5929 17.6844 17.5929 17.6844 17.5968 17.6844C17.6277 17.6844 17.6586 17.6651 17.674 17.6381L18.1566 16.75C18.1721 16.7191 18.1683 16.6844 18.1528 16.6574C18.1373 16.6341 18.1103 16.6187 18.0795 16.6187C18.0756 16.6187 18.0717 16.6187 18.0678 16.6187L17.0717 16.7693C17.037 16.7732 17.0099 16.7963 16.9983 16.8311C16.9906 16.862 16.9983 16.8967 17.0254 16.9199L17.1875 17.0627L16.0369 17.8543L14.8901 17.0627L15.0523 16.9199C15.0755 16.8967 15.0871 16.862 15.0755 16.8311C15.0677 16.7963 15.0407 16.7732 15.006 16.7693L14.0098 16.6187C14.0059 16.6187 14.0021 16.6187 13.9982 16.6187C13.9674 16.6187 13.9403 16.6303 13.9248 16.6574C13.9056 16.6844 13.9056 16.7191 13.921 16.75L14.3998 17.6381C14.4152 17.6651 14.4461 17.6844 14.477 17.6844C14.4809 17.6844 14.4809 17.6844 14.4809 17.6844C14.5156 17.6844 14.5426 17.6612 14.5581 17.6304L14.6392 17.4296L15.6508 18.1245L15.3921 18.3022C15.1334 18.1245 14.9635 17.9933 14.9596 17.9894C14.9442 17.9779 14.9249 17.9702 14.9056 17.9702C14.8824 17.9702 14.8593 17.9779 14.8438 17.9972L14.728 18.113C14.7125 18.1284 14.7009 18.1516 14.7009 18.1786C14.7009 18.2018 14.7125 18.225 14.7319 18.2404C14.7512 18.2559 14.8786 18.364 15.0832 18.5184L14.4384 18.9624C14.4152 18.9779 14.3998 19.0049 14.3998 19.0358C14.3998 19.0667 14.4152 19.0898 14.4384 19.1092L14.7627 19.3292C14.7627 19.3292 14.7627 19.3292 14.7589 19.3292C14.6585 19.3562 14.5658 19.3718 14.4732 19.3718C14.0446 19.3718 13.8052 19.0435 13.7318 18.7655C13.6353 18.3948 13.7627 17.53 13.7627 17.5223C13.7666 17.4875 13.7511 17.4528 13.7202 17.4373C13.5426 17.3369 13.3689 17.2829 13.2028 17.2829C12.8785 17.2829 12.6931 17.472 12.6854 17.4836C12.67 17.4952 12.6623 17.5184 12.6623 17.5338C12.6584 17.5879 12.558 18.835 13.1372 19.4683C13.3496 19.6999 13.6314 19.8196 13.9674 19.8196C14.0253 19.8196 14.0909 19.8196 14.1527 19.8081C14.4809 19.7694 14.8013 19.6806 15.1141 19.5725L15.6508 19.9354L14.4655 20.7385C14.4422 20.7578 14.4268 20.7811 14.4268 20.8119C14.4268 20.8389 14.4384 20.866 14.4655 20.8853L15.6547 21.7077L14.6392 22.4104L14.562 22.2135C14.5504 22.1826 14.5195 22.1633 14.4848 22.1594C14.4848 22.1594 14.4848 22.1594 14.4809 22.1594C14.45 22.1594 14.4191 22.1787 14.4037 22.2058L13.9248 23.0939C13.9094 23.1209 13.9133 23.1595 13.9287 23.1827C13.9442 23.2058 13.9712 23.2212 14.0021 23.2212C14.0059 23.2212 14.0098 23.2212 14.0136 23.2212L15.0099 23.0746C15.0446 23.0707 15.0716 23.0436 15.0794 23.0128C15.091 22.978 15.0794 22.9433 15.0562 22.9201L14.8901 22.7734L16.0407 21.978L17.1913 22.7734L17.0254 22.9201C16.9983 22.9433 16.9906 22.978 16.9983 23.0128C17.006 23.0436 17.037 23.0668 17.0717 23.0746L18.0678 23.2212C18.0717 23.2212 18.0756 23.2212 18.0795 23.2212C18.1065 23.2212 18.1335 23.2097 18.1528 23.1827C18.1721 23.1556 18.1721 23.1209 18.1566 23.0939L17.674 22.2058C17.6586 22.1787 17.6315 22.1594 17.5968 22.1594H17.5929C17.5544 22.1594 17.5273 22.1826 17.5157 22.2135L17.4385 22.4104L16.423 21.7077L17.6122 20.8853C17.6354 20.8699 17.6509 20.8428 17.6509 20.8119C17.6509 20.7811 17.6354 20.7578 17.6122 20.7385L16.4269 19.9354L16.9636 19.5725C17.2724 19.6845 17.5929 19.7694 17.9212 19.8081C17.9868 19.8158 18.0485 19.8196 18.1065 19.8196C18.4463 19.8196 18.7243 19.6999 18.9366 19.4683C19.5158 18.835 19.4154 17.5879 19.4116 17.5338C19.4116 17.5184 19.4038 17.4991 19.3922 17.4836ZM16.033 18.4026L16.2879 18.5764C16.2068 18.6265 16.1218 18.6806 16.033 18.7346C15.9442 18.6806 15.8593 18.6304 15.7782 18.5764L16.033 18.4026ZM15.1064 19.0397L15.4578 18.7964C15.5273 18.8389 15.5967 18.8852 15.6739 18.9354C15.535 19.0087 15.396 19.0783 15.257 19.1439L15.1064 19.0397ZM16.9404 20.8119L16.033 21.4374L15.1295 20.8119L16.033 20.198L16.9404 20.8119ZM16.033 19.669L15.5967 19.3718C15.7512 19.2984 15.8941 19.225 16.033 19.1478C16.1721 19.225 16.3188 19.2984 16.4732 19.3718L16.033 19.669ZM16.813 19.1439C16.674 19.0821 16.5311 19.0126 16.3921 18.9354C16.4693 18.8891 16.5388 18.8428 16.6084 18.7964L16.9636 19.0397L16.813 19.1439Z" fill="#969696"/>
<path d="M31.1046 15.128C30.7339 14.9041 30.12 14.8268 29.4945 14.8848C30.4714 14.545 31.1393 13.8191 31.1741 13.1704C30.6644 13.0237 30.1354 13.1009 29.676 13.2052C30.1509 12.85 30.9308 12.2012 30.8343 11.2475C30.3748 11.1356 29.5332 11.4561 29.1818 11.6144C30.3092 10.9811 30.7146 9.483 30.1161 8.6336C29.7609 8.84208 28.1509 10.4869 27.8883 10.6761C28.7223 9.72242 29.1123 9.03898 29.3362 8.39806C29.6026 7.6992 29.622 6.47908 28.7571 6.0698C28.3478 7.00419 26.9192 9.40191 26.1238 10.3981C26.035 10.3209 25.9655 10.2167 25.8536 10.1973C25.6644 10.8035 25.1006 11.6105 24.5871 11.9966C24.5601 11.9464 24.5099 11.8074 24.4211 11.6568C23.8767 12.4715 22.4635 13.5874 22.0079 14.2747C21.6527 14.7844 21.6527 15.2438 22.147 15.7187C22.3477 15.9195 22.7261 16.2709 22.398 16.7651C21.9501 17.4176 21.0504 17.4948 20.5639 17.1088C20.5639 16.9929 20.56 16.8809 20.5562 16.7767C21.1315 16.5528 21.2666 15.769 20.8419 15.2824C20.7492 15.46 20.5948 15.5914 20.4095 15.6569C20.3593 15.4523 20.3168 15.3558 20.3129 15.3442L20.2898 15.2979H20.2396C20.2358 15.2979 20.0465 15.2863 19.7647 15.2554C20.0852 15.1512 20.2898 14.8538 20.2435 14.4562C19.7492 14.8809 19.255 14.4755 19.143 14.3635C18.8342 14.0006 18.7454 13.5913 18.8689 12.9658C18.9732 12.4214 19.5369 11.5565 19.9075 11.2785C19.9616 11.3286 20.0465 11.4329 20.228 11.4174C20.3323 11.3827 20.506 11.2939 20.6373 11.2437C21.0118 11.1317 21.3747 11.2167 21.6064 11.3673C22.0311 11.626 21.9925 11.9117 21.9809 12.1202C22.6257 11.7572 22.4018 11.151 21.5562 10.9271C22.1354 10.9271 22.6103 11.4561 22.7338 11.5217C23.0543 11.7572 23.5138 11.7032 23.7802 11.5758C24.2937 11.3325 24.398 10.7263 24.2589 10.6028C24.2088 10.819 24.0427 11.0121 23.7454 11.0468C23.3053 11.097 22.8806 10.9078 22.5446 10.7572C22.2589 10.6375 21.7995 10.5487 21.4867 10.568C22.0659 10.2475 22.9655 10.2823 23.2859 10.7765C23.479 10.622 23.5987 10.4831 23.6527 10.1626C23.8188 9.29768 23.1431 8.85365 22.4211 8.85365C22.4404 8.64518 22.2936 8.54094 22.1006 8.61038C22.1006 8.52162 22.0774 8.45211 22.0272 8.41736C22.0427 8.41736 22.0659 8.40964 22.0813 8.40964C22.8072 8.35944 23.4945 8.1355 23.8651 7.74553C24.5138 7.05053 23.479 6.17019 23.8497 5.48677C24.2049 5.64122 24.4674 5.842 24.9578 5.9115C25.008 6.01575 25.0543 6.22424 25.0697 6.33622C25.2281 7.10845 24.4674 7.23586 24.6644 8.05828C24.7493 8.43281 25.0312 8.56023 25.1238 9.00426C25.1238 9.00426 25.1586 9.31311 24.8883 9.58346C25.5138 9.59889 25.842 9.06992 25.649 8.57952C25.564 8.37876 25.3477 8.18956 25.3477 7.95403C25.6682 8.37875 25.9539 8.36331 26.4481 8.205C26.6721 8.1355 26.6914 8.44826 26.5524 8.69926C26.8922 8.49845 26.9771 8.17025 26.9771 8.02353C26.9771 7.67603 26.7068 7.51386 26.4481 7.58336C26.3014 7.5988 26.008 7.79958 25.9887 7.51386C25.9269 7.01964 26.7068 7.03895 26.5485 6.24355C26.4636 5.84585 26.0196 5.62577 25.3285 5.54083C25.2589 5.47133 25.0852 5.3053 24.9925 5.1663C24.6142 4.53694 24.2204 4.37091 23.9848 4.49832C23.7068 4.63732 23.5639 4.75702 23.3362 4.88058C23.1547 4.9771 22.9616 5.0273 22.8419 5.1663C22.5408 5.54083 22.8265 6.11999 22.9809 6.47522C23.0852 6.68372 23.3362 7.15864 23.2242 7.51386C23.1006 7.93859 22.4018 8.205 21.9771 8.29381C21.9501 8.29381 21.9307 8.30153 21.9037 8.30153V8.1355C22.0272 7.91928 22.1315 7.66058 22.2165 7.42506C22.5022 6.66055 22.0774 6.35167 21.4481 6.20494C21.367 6.15474 21.2821 6.13544 21.1778 6.17019H21.1585L21.1431 6.29761L21.0582 6.27058L21.0774 6.11613H21.0388C21.1122 6.06594 21.1431 5.97713 21.1431 5.89219C21.1431 5.79952 21.1083 5.72616 21.0736 5.67597H21.1585L21.1237 5.64122C21.1083 5.60646 21.0736 5.57171 21.0195 5.51766C21.0041 5.50221 20.9848 5.46746 20.9848 5.44816C21.0002 5.4636 21.0195 5.48291 21.0543 5.49836C21.089 5.53311 21.1392 5.56786 21.1585 5.60261L21.2087 5.63736V4.93849L21.1585 4.98096C21.1431 4.99641 21.089 5.03116 21.0543 5.06977C21.0195 5.10452 21.0041 5.10452 20.9848 5.11996C20.9848 5.10452 21.0002 5.08521 21.0195 5.05046C21.0736 5.01571 21.1083 4.96552 21.1237 4.93849L21.1585 4.88443H20.4481L20.4828 4.93849C20.5176 4.96166 20.56 5.01571 20.5948 5.05046C20.6103 5.08521 20.6296 5.10452 20.645 5.11996C20.6257 5.10452 20.5948 5.10452 20.5755 5.06977C20.5138 5.03502 20.4828 5.00027 20.4481 4.98096L20.4211 4.93849V5.64894L20.4558 5.61419C20.4905 5.57944 20.5253 5.54469 20.5832 5.50994C20.6026 5.4945 20.6334 5.47519 20.6527 5.45975C20.6334 5.47519 20.618 5.50994 20.6026 5.52924C20.5678 5.5833 20.5215 5.61419 20.4905 5.6528L20.4558 5.68755H20.5678C20.506 5.73774 20.4905 5.8111 20.4905 5.90377C20.4905 5.98872 20.5253 6.07753 20.5832 6.12772H20.5678L20.5832 6.28216L20.4905 6.30919L20.4712 6.18177H20.4558C20.3516 6.14703 20.2666 6.16633 20.1971 6.21652C19.5562 6.36325 19.1314 6.676 19.4172 7.43664C19.506 7.67217 19.6103 7.93086 19.7376 8.14708V8.25906C19.0967 8.05056 17.9423 7.34783 17.6334 6.92311C17.5986 6.88064 17.5716 6.84589 17.5562 6.81886H17.5523L17.5639 6.35939C17.7878 5.98486 17.9886 5.52538 18.143 5.10452C18.5485 4.0041 17.95 3.54462 17.0002 3.35543C16.9037 3.28593 16.7839 3.25118 16.6257 3.30524L16.5909 3.47899L16.3901 3.46354L16.4056 3.2396C16.3786 3.24732 16.3438 3.24732 16.309 3.24732C16.4442 3.17782 16.5407 3.01179 16.5407 2.84191C16.5407 2.71835 16.4789 2.57162 16.3747 2.50212H16.5407C16.4442 2.41718 16.2898 2.23571 16.2589 2.11215C16.3786 2.1469 16.56 2.30907 16.645 2.39787V1.49823C16.56 1.56773 16.3786 1.74148 16.2589 1.75693C16.2898 1.65654 16.4442 1.48279 16.5407 1.39398H15.6411C15.7106 1.48279 15.8843 1.65654 15.8998 1.75693C15.7955 1.74148 15.6217 1.56773 15.5252 1.49823V2.39787C15.6217 2.30907 15.7916 2.1469 15.8998 2.11215C15.8843 2.23184 15.7106 2.41332 15.6411 2.50212H15.7955C15.6913 2.57162 15.6411 2.71835 15.6411 2.84191C15.6411 3.01179 15.7261 3.18168 15.865 3.24732C15.8303 3.24732 15.7955 3.24732 15.7415 3.23188L15.7608 3.45582L15.56 3.47127L15.5407 3.29751C15.3863 3.24732 15.2666 3.28207 15.1623 3.34771C14.2202 3.54077 13.6217 3.99638 14.0272 5.0968C14.1661 5.51766 14.367 5.981 14.6063 6.35167V6.82658C14.5909 6.84202 14.5716 6.87677 14.5368 6.91152C14.2357 7.33625 13.0735 8.03897 12.4325 8.24748V8.1355C12.56 7.91928 12.6681 7.66058 12.753 7.42506C13.0388 6.66055 12.614 6.35167 11.9731 6.20494C11.8997 6.15474 11.8186 6.13544 11.7144 6.17019H11.699L11.6797 6.29761L11.5947 6.27058L11.6102 6.11613H11.5947C11.6449 6.06594 11.6797 5.97713 11.6797 5.89219C11.6797 5.79952 11.6642 5.72616 11.6102 5.67597H11.7144L11.6797 5.64122C11.6449 5.60646 11.6102 5.57171 11.5754 5.51766C11.5599 5.50221 11.5329 5.46746 11.5136 5.44816C11.5329 5.4636 11.5754 5.48291 11.5909 5.49836C11.641 5.53311 11.6758 5.56786 11.7144 5.60261L11.7492 5.63736V4.93849L11.7144 4.98096C11.6797 4.99641 11.6449 5.03116 11.5909 5.06977C11.5754 5.10452 11.5329 5.10452 11.5136 5.11996C11.5329 5.10452 11.5561 5.08521 11.5754 5.05046C11.6102 5.01571 11.6449 4.96552 11.6797 4.93849L11.7144 4.88443H11.0039L11.0387 4.93849C11.0542 4.96166 11.1005 5.01571 11.1353 5.05046C11.17 5.08521 11.1854 5.10452 11.1854 5.11996C11.1738 5.10066 11.1546 5.10066 11.1237 5.06591C11.0812 5.03116 11.0272 4.99641 11.0117 4.97711L10.9577 4.93463V5.64508L11.0117 5.61033C11.0272 5.57558 11.0812 5.54083 11.1237 5.50608C11.1584 5.49063 11.1738 5.47133 11.1893 5.45588C11.1893 5.47133 11.1738 5.50608 11.1391 5.52538C11.1043 5.57944 11.058 5.61033 11.0426 5.64894L11.0078 5.68369H11.1005C11.058 5.73389 11.0194 5.80724 11.0194 5.89992C11.0194 5.98486 11.0542 6.07366 11.1353 6.12386H11.1005L11.1198 6.2783L11.0233 6.30533L11.0078 6.17791H10.9885C10.8843 6.14316 10.7993 6.16247 10.7298 6.21266C10.0889 6.35939 9.66415 6.67214 9.94993 7.43277C10.0387 7.6683 10.143 7.927 10.2704 8.14322V8.30925C10.2434 8.30925 10.2202 8.30153 10.2008 8.30153C9.77618 8.21273 9.06573 7.94631 8.94607 7.52158C8.83404 7.16636 9.08502 6.69144 9.18926 6.48294C9.3553 6.12772 9.63329 5.54855 9.33987 5.17402C9.20855 5.03502 9.01937 4.98483 8.83404 4.8883C8.61013 4.7686 8.4711 4.64505 8.1854 4.50604C7.95761 4.37863 7.5715 4.54079 7.17767 5.17402C7.09273 5.31302 6.91126 5.47519 6.8379 5.54855C6.1545 5.63349 5.71433 5.84972 5.61781 6.25127C5.45951 7.04667 6.23944 7.03122 6.18925 7.52158C6.16994 7.80731 5.86878 7.60653 5.72978 7.59108C5.45951 7.52158 5.1931 7.68375 5.1931 8.03125C5.1931 8.17798 5.28962 8.50617 5.61781 8.70698C5.47881 8.45597 5.49426 8.14322 5.72978 8.21273C6.224 8.37103 6.49813 8.38648 6.82246 7.96175C6.82246 8.19342 6.61396 8.38647 6.5213 8.58724C6.32824 9.08149 6.64871 9.6066 7.28192 9.59117C6.9962 9.3209 7.05412 9.01197 7.05412 9.01197C7.14293 8.56795 7.42092 8.44053 7.51359 8.066C7.70664 7.24358 6.94215 7.11616 7.10818 6.34394C7.12361 6.23197 7.15837 6.02347 7.21242 5.91922C7.70664 5.84972 7.97691 5.6528 8.32057 5.4945C8.67579 6.17791 7.65258 7.05825 8.30507 7.75325C8.67965 8.14322 9.37073 8.36717 10.0889 8.41736C10.1043 8.41736 10.1275 8.42509 10.1468 8.42894C10.0966 8.4637 10.0696 8.52934 10.0696 8.61817C9.88041 8.54866 9.73367 8.65289 9.76075 8.86137C9.01551 8.86137 8.35915 9.30539 8.52133 10.1703C8.57148 10.4908 8.69508 10.6298 8.89584 10.7842C9.20855 10.29 10.1082 10.2552 10.6951 10.5757C10.3746 10.5565 9.91513 10.6453 9.63329 10.7649C9.30121 10.9117 8.88041 11.1047 8.44024 11.0545C8.13522 11.0198 7.98077 10.8306 7.919 10.6105C7.77999 10.7341 7.88425 11.3363 8.40166 11.5835C8.66029 11.7109 9.11975 11.7649 9.44025 11.5295C9.56377 11.4599 10.0387 10.9348 10.6217 10.9348C9.78004 11.1587 9.54448 11.7649 10.2047 12.1279C10.1777 11.9194 10.1468 11.6337 10.5676 11.375C10.8032 11.2282 11.1738 11.1394 11.5406 11.2514C11.6681 11.3016 11.8418 11.3904 11.9461 11.4251C12.1276 11.4407 12.2125 11.3363 12.2665 11.2862C12.641 11.5642 13.1854 12.4291 13.3052 12.9735C13.4364 13.599 13.3399 14.0044 13.0272 14.3712C12.9229 14.4832 12.421 14.8886 11.9307 14.4639C11.8843 14.8615 12.0889 15.155 12.4094 15.2631C12.1237 15.294 11.9307 15.3056 11.9268 15.3056H11.8766L11.8573 15.3519C11.8534 15.3597 11.8109 15.46 11.7569 15.6608C11.5793 15.5914 11.4248 15.4639 11.3322 15.2863C10.9074 15.7728 11.0387 16.5528 11.6102 16.7767C11.6063 16.8848 11.6024 16.9968 11.6024 17.1165C11.1121 17.4948 10.2241 17.4138 9.78389 16.7651C9.4441 16.2709 9.83405 15.9156 10.0272 15.7187C10.5213 15.2438 10.5213 14.7844 10.1623 14.2747C9.7028 13.5913 8.29349 12.4715 7.74911 11.6568C7.6603 11.8036 7.61011 11.9425 7.5908 11.9966C7.08115 11.6105 6.50971 10.8035 6.32052 10.1973C6.21627 10.2128 6.13905 10.3209 6.05025 10.3981C5.26259 9.40191 3.82628 7.00419 3.42087 6.0698C2.56372 6.47908 2.57917 7.6992 2.84172 8.39806C3.07338 9.03898 3.46335 9.72242 4.28575 10.6761C4.02706 10.4831 2.417 8.84208 2.06179 8.6336C1.46719 9.483 1.8726 10.9811 2.99616 11.6144C2.65253 11.4561 1.8031 11.1356 1.34363 11.2475C1.25869 12.2012 2.02704 12.85 2.50195 13.2052C2.03862 13.1009 1.50966 13.0237 1 13.1704C1.03475 13.8191 1.71043 14.5488 2.66025 14.8848C2.05407 14.823 1.44016 14.9041 1.06564 15.128C1.13514 15.8037 1.89963 16.3867 2.81469 16.5257C2.20078 16.5952 1.65638 16.8655 1.37066 17.2361C1.70657 17.6763 2.20078 18.0161 2.95369 18.0007C2.77994 18.0625 2.57917 18.1821 2.40928 18.3443C2.38998 18.3289 2.35522 18.3096 2.32434 18.3096C2.28573 18.325 2.27414 18.379 2.28573 18.4138C2.28573 18.4138 2.28573 18.4138 2.28573 18.4408C2.21237 18.4911 2.17376 18.5528 2.16603 18.6146C2.09654 18.715 2.02318 18.8308 1.98456 18.9351C2.00387 18.9428 2.01932 18.9621 2.03476 18.9698C2.0309 19.0239 2.04634 19.0895 2.08882 19.1551C2.05407 19.1899 2.03862 19.2401 2.01932 19.2942L1.57915 19.1166C1.55599 19.5181 1.6448 19.8463 1.84557 20.0509C2.00387 20.2324 2.18534 20.2054 2.13129 20.2672L2.61006 20.5606C2.695 20.7421 2.86874 20.7421 2.98844 20.6919C2.98844 20.6919 2.98844 20.7073 2.98844 20.7266C2.98844 20.9158 3.11971 21.0703 3.2896 21.1321C3.25485 21.2903 3.32435 21.3907 3.54057 21.4641L5.33982 25.8272C5.27032 26.0357 5.33982 26.2171 5.49812 26.2866C5.45951 26.3369 5.42862 26.3909 5.42862 26.4951C5.49812 26.445 5.60237 26.4257 5.65256 26.5723C5.68731 26.6766 5.49812 27.0125 5.78384 27.2403C5.74523 27.4411 5.85334 27.6457 6.05797 27.7345C6.05797 27.8388 6.1545 28.1747 6.16994 28.2944C6.04253 28.4759 5.74523 28.7539 5.78384 29.0589C5.81859 29.2752 5.90353 29.3447 6.07728 29.3987C6.00778 29.7887 6.224 29.9625 6.55218 29.9817C6.55218 30.2674 6.8186 30.3678 6.99234 30.3871C7.15837 30.5107 7.22787 30.5609 7.41706 30.6575C7.24331 30.8621 7.36686 31.1323 7.68347 31.2212C7.71822 31.3408 7.80702 31.4451 7.98463 31.4876C8.08888 31.6613 8.27806 31.6613 8.39001 31.6111C8.45953 31.5764 8.58313 31.3756 8.47496 31.2019C8.54448 31.1169 8.50976 30.9509 8.45953 30.8466C8.56377 30.6575 8.47496 30.4219 8.33215 30.3524C8.35144 30.2482 8.29735 30.0821 8.26263 29.9817C8.51361 29.8234 8.82632 29.6265 8.93828 29.557C9.5522 29.1168 10.2472 28.723 11.0349 28.6728C11.2356 28.6535 11.6063 28.6381 11.8148 28.6535C12.1353 28.6882 12.5754 28.7848 12.8341 28.584C12.9151 28.5338 12.9654 28.445 12.9499 28.36C12.9152 28.1593 12.699 27.9855 12.6294 27.8079C12.6102 27.7539 12.5793 27.6728 12.5445 27.5994C12.7685 27.638 12.9769 27.6071 13.1044 27.5453C13.2434 27.4952 13.5793 27.2442 13.5639 26.8697C13.2936 26.9971 12.6449 27.1708 12.5754 26.5145C12.5059 25.9353 13.0156 25.441 13.8148 25.6573C14.3592 25.7962 15.1546 26.9546 14.4287 27.4604C14.0735 27.7037 13.5291 27.9354 13.5986 28.5686C13.8303 28.2829 14.143 28.1438 14.5484 28.1786C13.9538 28.6187 13.4944 28.6728 12.8689 29.0087C12.3245 29.3292 11.919 29.8582 11.4905 29.8736C11.1623 29.8891 10.9808 29.4991 11.3013 29.1979C10.9808 29.1284 10.5561 29.3794 10.4364 29.7153C10.2819 30.1748 10.4017 30.503 10.6874 30.6883C10.3013 30.8968 10.0117 31.3022 10.1507 31.8814C10.2819 32.3563 10.7569 32.3563 10.5754 32.9625C10.8418 32.893 11.0155 32.7116 11.0928 32.4529C11.1275 32.2714 11.1623 32.0822 11.2511 31.9934C11.2125 32.3563 11.421 32.893 11.919 33.1363C12.2549 33.3023 12.7839 33.3679 13.1894 32.9471C13.3553 33.422 13.9152 33.8313 14.4982 33.8119C14.7646 33.8119 15.0272 33.6961 15.2241 33.5803C15.3631 33.9317 15.7183 34.2908 16.0696 34.4607C16.4326 34.2908 16.7878 33.9317 16.9345 33.5803C17.1276 33.7 17.394 33.8119 17.6527 33.8119C18.2125 33.8274 18.8033 33.422 18.9615 32.9471C19.367 33.3679 19.896 33.3023 20.2319 33.1363C20.7261 32.893 20.9346 32.3563 20.8998 31.9934C20.9925 32.0822 21.0272 32.2714 21.0659 32.4529C21.1354 32.7116 21.3052 32.893 21.5755 32.9625C21.394 32.3563 21.8806 32.3563 22.0002 31.8814C22.1392 31.3022 21.8535 30.8929 21.4712 30.6883C21.7492 30.5069 21.8806 30.1786 21.7145 29.7153C21.5948 29.3794 21.1701 29.1284 20.8496 29.1979C21.1701 29.4991 20.9964 29.8891 20.6604 29.8736C20.2358 29.8582 19.8303 29.3253 19.2821 29.0087C18.6604 28.669 18.201 28.6187 17.6025 28.1786C18.0079 28.1438 18.3283 28.2829 18.5523 28.5686C18.6218 27.9354 18.0774 27.7037 17.7222 27.4604C17.0041 26.9546 17.7917 25.7962 18.3477 25.6573C19.1353 25.441 19.6566 25.9353 19.5755 26.5145C19.4905 27.1747 18.8573 27.0009 18.5716 26.8697C18.5716 27.2403 18.9075 27.4913 19.0465 27.5453C19.2087 27.6226 19.5099 27.6651 19.7762 27.5492C19.7685 27.6149 19.7569 27.6844 19.7569 27.7037C19.7029 28.2674 19.4017 28.3176 19.506 28.5493C19.6527 28.723 20.6218 28.6882 20.8844 28.7423C21.3439 28.8041 21.7338 28.9739 22.174 29.0628C22.6682 29.1671 23.1933 29.1671 23.6373 29.3485C23.923 29.4721 24.2435 29.7038 24.5215 29.8427C24.9462 29.9122 24.8767 30.086 25.147 30.086C25.3902 30.086 25.4829 29.8775 25.7956 29.7926C26.0119 29.7423 26.2551 29.8273 26.4713 29.7578C26.6296 29.723 26.6991 29.5609 26.8459 29.4721C27.0196 29.3678 27.2628 29.3678 27.425 29.2172C27.5099 29.14 27.5292 28.9933 27.5138 28.8891L27.5176 28.9122C27.8497 28.6805 28.1007 28.3407 28.2397 27.9508C28.3246 27.9354 28.3941 27.8581 28.3941 27.7693C28.3941 27.7539 28.3941 27.7345 28.3941 27.7345C28.4791 27.6651 28.5331 27.5608 28.5331 27.4565C28.5331 27.3253 28.4829 27.2211 28.3941 27.1361C28.3941 27.1361 28.3941 27.1168 28.3941 27.1013C28.3941 27.0318 28.3594 26.9817 28.3246 26.9353C28.1856 26.1824 27.6142 25.5762 26.8767 25.387C26.8767 25.3677 26.8767 25.3677 26.8767 25.3522H26.8613C26.8613 25.3175 26.8459 25.2982 26.8189 25.2982C26.7145 25.194 26.591 25.0318 26.5756 24.9276C26.6953 24.9623 26.896 25.1515 27.0002 25.2287V24.2325C26.896 24.3098 26.6991 24.499 26.5756 24.5337C26.591 24.4102 26.7802 24.1939 26.8767 24.1089H25.8651C25.9578 24.1939 26.1508 24.4102 26.1663 24.5337C26.0466 24.499 25.8458 24.3098 25.7455 24.2325V25.2287C25.8497 25.1515 26.0466 24.9623 26.1663 24.9276C26.1508 25.0511 25.9578 25.2673 25.8651 25.3522L25.8999 25.3677C25.147 25.5415 24.5408 26.167 24.4018 26.9353C24.3516 26.9778 24.3169 27.0318 24.3169 27.1013C24.3169 27.1168 24.3169 27.1361 24.3169 27.1361C24.2281 27.2211 24.1778 27.3253 24.1778 27.4565C24.1778 27.5569 24.2281 27.6651 24.3169 27.7345C24.3169 27.7345 24.3169 27.75 24.3169 27.7693C24.3169 27.8813 24.3864 27.9354 24.4713 27.9508C24.5061 28.0473 24.5485 28.1438 24.5949 28.2288C24.5949 28.2211 24.5949 28.2211 24.6064 28.2095C24.5446 28.4952 24.1971 28.669 24.12 28.669C23.5022 28.7578 22.8188 28.4952 22.1971 28.2635C21.923 28.1593 21.5485 28.0396 21.367 27.7693C21.2551 27.5724 21.2048 27.4488 21.2628 27.2751C21.3323 27.36 21.4442 27.4565 21.6026 27.5415C21.618 27.4565 21.618 27.36 21.6527 27.2905C21.811 27.5261 22.062 27.6457 22.3632 27.6303C22.1817 27.4758 22.0967 27.0666 22.1817 26.7114C22.4327 27.1361 23.3863 27.2211 23.5601 26.4604C23.2048 26.6264 22.9771 26.445 22.9114 26.2519C22.8072 25.9468 23.1547 25.2094 22.8419 24.6418C22.591 24.2171 22.3052 23.9584 21.6411 23.8541C21.6914 23.773 21.7107 23.7036 21.7261 23.5838C21.1122 23.8078 20.5832 23.6341 20.3323 23.1437C20.4558 23.1939 20.6334 23.2132 20.8072 23.2132C20.2628 22.7691 20.2975 21.5143 20.6875 20.8656C20.7377 20.8309 20.7569 20.7961 20.8072 20.7807C20.9268 21.0239 21.2821 21.0239 21.4635 21.2209C21.533 21.1514 21.5678 21.1321 21.6373 21.0741C21.6373 21.0741 21.6527 22.1051 21.7222 22.5297C21.7917 23.0047 22.2512 22.9545 22.4868 23.163C22.7647 22.858 23.2666 22.8734 23.1894 22.3483C23.12 21.8232 23.0157 21.3444 23.0002 20.9892C23.1547 21.3097 23.4597 22.5143 23.5794 22.858C23.7763 23.3676 24.2705 23.2132 24.5485 23.4139C24.73 23.0587 25.1894 22.9545 25.008 22.4178C24.9578 22.2788 24.2049 20.6958 24.0929 20.3907C24.3593 20.7807 25.089 22.1745 25.313 22.5645C25.564 22.9699 26.0235 22.773 26.3516 22.8734C26.4134 22.58 26.8574 22.2402 26.5331 21.7305C26.1277 21.0548 25.174 19.8772 25.1238 19.7111C25.313 19.8926 26.7918 21.7305 26.9076 21.8309C27.2512 22.1321 27.7532 21.9004 28.0505 21.9004C28.0505 21.5645 28.3169 21.1822 27.9308 20.7923C27.5756 20.4525 26.7609 19.8733 26.5872 19.6764C27.1316 20.0509 27.7725 20.6455 28.1547 20.7421C28.8304 20.9158 29.0736 20.6455 29.3246 20.5413C29.1161 19.9274 29.3941 19.6417 27.9655 19.0432C29.2011 19.4834 29.7494 19.2671 30.1895 18.9196C30.0158 18.4794 29.5756 18.1088 29.2165 17.9852C29.9733 18.0007 30.4752 17.6647 30.8034 17.2207C30.5255 16.8501 29.9733 16.5798 29.34 16.5103C30.2745 16.3829 31.0196 15.8037 31.1046 15.128ZM2.44403 19.6648C2.42858 19.6648 2.42858 19.6803 2.40928 19.6995C2.30504 19.6841 2.30504 19.5606 2.32434 19.4563C2.37453 19.4563 2.40928 19.4408 2.44403 19.4061L2.45948 19.4254L2.40928 19.4602C2.42858 19.5258 2.42858 19.5953 2.44403 19.6648ZM2.7838 20.3907L2.61392 20.2903C2.68342 20.2092 2.74905 20.2092 2.81856 20.2556C2.81856 20.3057 2.81856 20.356 2.7838 20.3907ZM3.29346 19.3096C3.2703 19.3096 3.24713 19.3096 3.22397 19.3096C3.2201 19.3057 3.21624 19.298 3.21238 19.2942C3.24327 19.2865 3.27802 19.2865 3.30505 19.2787C3.30505 19.2865 3.29732 19.298 3.29346 19.3096ZM13.1121 31.9586C12.6874 31.9586 12.3863 31.6922 12.6024 31.3177C12.7144 31.4876 12.9384 31.5648 13.1314 31.5841C13.1121 31.7617 13.1121 31.8119 13.1121 31.9586ZM19.5716 31.3177C19.7879 31.6922 19.4867 31.9586 19.062 31.9586C19.062 31.8119 19.062 31.7617 19.0272 31.5841C19.2241 31.5687 19.4558 31.4953 19.5716 31.3177ZM13.0967 8.39806C14.0658 8.18956 15.0542 7.64514 15.4982 7.18566C15.865 7.20883 16.3399 7.21269 16.699 7.18953C17.1353 7.65286 18.1083 8.1857 19.0813 8.39419C18.5176 8.39419 17.533 8.344 17.4094 8.205C17.4442 8.56023 18.1971 8.96175 18.6913 9.06992C18.282 9.12007 17.9037 9.06992 17.5832 8.92317C17.7569 9.17415 17.9577 9.36334 18.2859 9.47529C17.9423 9.90003 17.2318 10.1742 16.5292 10.1085C16.7028 10.317 17.0233 10.4483 17.3013 10.4097C16.6681 11.4174 16.2009 12.4522 16.089 13.6492H16.0851V13.6531C15.9808 12.4522 15.5137 11.4174 14.8843 10.4097C15.17 10.4444 15.4828 10.317 15.645 10.1085C14.9345 10.178 14.2511 9.90003 13.8959 9.47529C14.2279 9.36334 14.4248 9.17415 14.5986 8.92317C14.2859 9.06992 13.8959 9.12007 13.4905 9.06992C13.9847 8.95789 14.7453 8.56023 14.7801 8.205C14.645 8.34786 13.6604 8.39806 13.0967 8.39806ZM4.21239 19.0509C4.12358 19.0895 4.01548 19.1358 3.93439 19.1706C3.93439 19.1629 3.93439 19.1551 3.93439 19.1474C4.01934 19.1127 4.12745 19.0818 4.21239 19.0509ZM10.4441 23.5877C10.4634 23.7074 10.4789 23.7769 10.5291 23.858C9.86112 23.9623 9.57928 24.221 9.33601 24.6456C8.99622 25.2171 9.35144 25.9546 9.25492 26.2558C9.1854 26.445 8.96536 26.6303 8.61014 26.4642C8.78389 27.2288 9.73367 27.14 9.98465 26.7152C10.0696 27.0705 9.98465 27.4798 9.8109 27.6341C10.1082 27.6496 10.3592 27.5299 10.5136 27.2944C10.5483 27.3639 10.5483 27.4604 10.5638 27.5453C10.7298 27.4604 10.8341 27.3639 10.9036 27.2789C10.9306 27.3639 10.9615 27.5646 10.9229 27.7268C10.7955 27.8118 10.6526 27.8929 10.4287 28.0087C10.0735 28.1825 9.42481 28.4334 9.05416 28.4836C8.74909 28.5338 8.22012 28.36 8.08502 27.9354C7.96146 27.5299 7.62555 27.3987 7.35914 27.6496C7.28964 27.5994 7.10045 27.5608 7.01937 27.6882C7.01937 27.6882 6.93443 27.4952 6.83018 27.4025C6.89968 27.194 6.84563 26.943 6.65643 26.8581C6.64099 26.4488 6.39002 26.4488 6.30121 26.3098C6.25102 26.2248 6.25102 26.1167 6.37071 26.1013C6.32052 26.0241 6.21242 26.0086 6.19697 26.0086C6.23172 25.8349 6.17766 25.6186 5.946 25.5492L3.89193 21.3097C4.0232 21.1707 3.9537 20.9699 3.80698 20.9004C3.80698 20.9004 3.80698 20.8849 3.80698 20.8656C3.81856 20.8309 3.82243 20.8077 3.82628 20.7807C3.88034 20.7729 3.94984 20.7575 4.00775 20.7421C4.41316 20.6455 5.04637 20.0509 5.59464 19.6764C5.40159 19.8772 4.60622 20.4564 4.251 20.7923C3.91895 21.1204 4.05795 21.4486 4.112 21.7459L4.18922 21.912C4.49039 21.9313 4.94213 22.1128 5.27804 21.8347C5.38229 21.7305 6.86493 19.8926 7.06184 19.715C6.98462 19.881 6.05025 21.0587 5.62554 21.7343C5.31279 22.244 5.77225 22.58 5.82631 22.8772C6.16222 22.773 6.62168 22.9738 6.86493 22.5684C7.10045 22.1784 7.8186 20.7846 8.08502 20.3946C7.98077 20.6996 7.22014 22.2827 7.16609 22.4216C6.98462 22.9583 7.44409 23.0626 7.62555 23.4178C7.90355 23.217 8.40166 23.3754 8.5947 22.8618C8.71437 22.5182 9.01937 21.3135 9.17769 20.993C9.1584 21.3483 9.05416 21.827 8.98465 22.3521C8.91513 22.8811 9.40938 22.8618 9.66808 23.1669C9.91899 22.9583 10.3785 23.0086 10.448 22.5336C10.5175 22.1089 10.5329 21.078 10.5329 21.078C10.6024 21.1398 10.6372 21.1552 10.7144 21.2247C10.8843 21.0239 11.2434 21.0239 11.363 20.7846C11.4171 20.8 11.4325 20.8347 11.4866 20.8695C11.8766 21.5182 11.9074 22.773 11.363 23.217C11.5213 23.217 11.7182 23.1977 11.838 23.1475C11.5986 23.6379 11.0619 23.8117 10.4441 23.5877ZM14.282 29.5184C13.9615 29.9586 13.7105 30.279 13.5021 30.8274C13.1276 30.7926 13.2009 30.3331 13.3206 30.1014C13.5716 29.6419 14.5909 29.0435 15.1044 28.445C14.8766 28.8273 14.56 29.1748 14.282 29.5184ZM15.3901 30.3331C15.1817 31.1439 15.0349 32.3409 15.1044 32.8776C14.3863 32.5031 14.7916 31.059 15.0696 30.4373C15.4558 29.5724 15.7261 28.5145 15.8149 27.8388C16.0388 28.3523 15.5407 29.7848 15.3901 30.3331ZM17.0697 32.8776C17.1392 32.3409 17.0002 31.1439 16.7839 30.3331C16.6334 29.7848 16.1391 28.3523 16.3593 27.8388C16.4442 28.5145 16.7145 29.5686 17.1044 30.4373C17.3824 31.059 17.7878 32.5031 17.0697 32.8776ZM18.8535 30.0975C18.9771 30.3331 19.0465 30.7887 18.672 30.8234C18.4635 30.2752 18.2125 29.9586 17.9037 29.5146C17.6141 29.1748 17.2975 28.8234 17.0697 28.4411C17.5793 29.0435 18.6025 29.6381 18.8535 30.0975ZM18.7647 23.9005C17.8264 25.7229 16.1083 27.2056 16.089 27.1863C16.0696 27.2094 14.3515 25.7229 13.4133 23.9005C12.4751 22.0819 11.8727 19.2208 11.8418 17.8539C11.8071 16.4871 12.0773 15.9041 12.0773 15.9041C12.0773 15.9041 13.2511 15.8384 14.1894 15.5141C14.9847 15.24 15.8496 14.5411 16.0929 14.3364C16.336 14.5411 17.201 15.2361 18.0002 15.5141C18.9345 15.8423 20.1083 15.9041 20.1083 15.9041C20.1083 15.9041 20.3747 16.491 20.34 17.8539C20.3013 19.2208 19.6991 22.0819 18.7647 23.9005Z" fill="#969696"/>
<path d="M43.0552 18.3782C43.5368 18.3782 44.0275 18.4196 44.5229 18.5052C45.0092 18.5888 45.4452 18.74 45.8364 18.9593C46.2177 19.173 46.5291 19.4661 46.7769 19.846C47.0098 20.2073 47.1391 20.6887 47.1392 21.305C47.1392 21.8847 47.0231 22.3631 46.8062 22.7493C46.5825 23.1474 46.2838 23.4726 45.9146 23.722C45.5394 23.9754 45.1033 24.1636 44.6099 24.2825C44.1096 24.4031 43.5903 24.4651 43.0552 24.4651L42.7974 24.4573C42.676 24.4521 42.5491 24.4464 42.4165 24.4437H42.4175C42.2916 24.4385 42.1675 24.431 42.0493 24.4232H42.0503C41.9224 24.412 41.8484 24.4048 41.8042 24.3968L41.5024 24.3421V28.22H40.5552V18.5628C40.8929 18.4996 41.2573 18.4539 41.6479 18.428H41.6489C42.1255 18.3938 42.5915 18.3782 43.0552 18.3782ZM43.0981 19.1487C42.8306 19.1487 42.5738 19.1544 42.3237 19.1624H42.3218C42.0664 19.1734 41.8515 19.1986 41.688 19.2435L41.4995 19.2952V23.5384L41.6636 23.6019C41.7514 23.6359 41.8651 23.6509 41.9839 23.6566C42.0971 23.6619 42.209 23.667 42.3228 23.6771H42.3237C42.4565 23.6886 42.5797 23.6917 42.6958 23.6917H42.9517C43.3143 23.6917 43.6749 23.6642 44.0298 23.6087C44.3978 23.5512 44.7335 23.4404 45.0425 23.2698L45.0435 23.2689C45.3594 23.0926 45.6152 22.8477 45.8091 22.5296C46.0117 22.1998 46.104 21.7893 46.104 21.3157C46.104 20.8949 46.0126 20.5276 45.813 20.2249L45.812 20.2239L45.6606 20.0228C45.4985 19.8324 45.3046 19.6744 45.0786 19.5511H45.0796C44.7895 19.3913 44.4646 19.2844 44.1138 19.2269L44.1099 19.2259L43.856 19.1927C43.6022 19.1639 43.349 19.1487 43.0981 19.1487Z" fill="#969696" stroke="#969696" stroke-width="0.512797"/>
<path d="M51.4717 20.8417C52.0662 20.8417 52.5772 20.9386 53.0049 21.1268C53.4394 21.318 53.7969 21.5782 54.082 21.912C54.3696 22.2487 54.5829 22.6443 54.7256 23.1073V23.1083C54.869 23.5711 54.9414 24.0838 54.9414 24.6464C54.9414 25.245 54.8592 25.777 54.6992 26.2421C54.5382 26.7098 54.3118 27.1031 54.0205 27.4237C53.7299 27.7435 53.3729 27.9909 52.9463 28.161C52.5193 28.3313 52.0287 28.4198 51.4717 28.4198C50.8548 28.4198 50.3369 28.3224 49.9102 28.1346C49.475 27.9431 49.1202 27.6853 48.8408 27.3573C48.5586 27.0259 48.3451 26.6308 48.2051 26.1708L48.2041 26.1678C48.0584 25.7053 47.9873 25.1977 47.9873 24.6464C47.9873 24.036 48.0664 23.4954 48.2217 23.0243C48.3772 22.5528 48.6034 22.1591 48.8984 21.8397L48.8994 21.8387C49.1559 21.5588 49.4628 21.3337 49.8232 21.1678L49.9814 21.1005C50.4078 20.9304 50.9034 20.8417 51.4717 20.8417ZM51.4854 21.4706C50.6768 21.4706 50.0277 21.7328 49.5791 22.288C49.1324 22.832 48.9336 23.6362 48.9336 24.6464C48.9336 25.0258 48.976 25.3984 49.0635 25.7655C49.1526 26.1393 49.2954 26.4748 49.498 26.7772C49.7048 27.0859 49.9689 27.3291 50.29 27.5135C50.6263 27.7066 51.0283 27.7958 51.4854 27.7958C52.2943 27.7958 52.9404 27.5329 53.375 26.9745C53.8001 26.4283 53.9912 25.6389 53.9912 24.6493C53.9912 24.2522 53.9498 23.8669 53.8623 23.494V23.493C53.7737 23.1188 53.6341 22.7796 53.4355 22.4833C53.2343 22.1831 52.9726 21.9406 52.6523 21.7538L52.6514 21.7528L52.5234 21.6854C52.2179 21.5394 51.8688 21.4706 51.4854 21.4706Z" fill="#969696" stroke="#969696" stroke-width="0.512797"/>
<path d="M60.0117 20.8417C60.3876 20.8417 60.722 20.8657 61.0156 20.9149L61.2959 20.9725C61.5753 21.0414 61.8314 21.1215 62.0635 21.2128L61.876 21.8055C61.6759 21.7202 61.4663 21.6494 61.2471 21.5936C60.9203 21.5104 60.5678 21.4677 60.1914 21.4677C59.3472 21.4677 58.6727 21.7314 58.2178 22.2938C57.7715 22.8457 57.5704 23.6447 57.5703 24.6464C57.5703 25.037 57.6151 25.4165 57.709 25.7831C57.8038 26.1579 57.9556 26.4957 58.1719 26.7919C58.3906 27.0913 58.6744 27.3356 59.0195 27.5184H59.0205C59.3809 27.7078 59.8089 27.7958 60.293 27.7958C60.7211 27.7957 61.1096 27.737 61.4482 27.6122C61.6548 27.5362 61.8412 27.4472 62.0098 27.3495L62.2314 27.8485C61.9572 28.0166 61.6463 28.1513 61.292 28.244L61.291 28.245C60.8551 28.3616 60.3971 28.4198 59.9111 28.4198C59.2935 28.4198 58.7823 28.325 58.3682 28.1473C57.95 27.9676 57.619 27.7197 57.3643 27.4052C57.1083 27.0889 56.9193 26.6997 56.7988 26.2333H56.7998C56.6803 25.7603 56.6182 25.2315 56.6182 24.6464C56.6182 23.4703 56.8863 22.5782 57.3916 21.9393L57.4951 21.8143C58.0621 21.1776 58.8892 20.8418 60.0117 20.8417Z" fill="#969696" stroke="#969696" stroke-width="0.512797"/>
<path d="M66.8184 20.8417C67.3193 20.8417 67.7457 20.8855 68.1016 20.9725C68.3809 21.0414 68.6371 21.1216 68.8691 21.2128L68.6816 21.8055C68.4817 21.7203 68.2719 21.6494 68.0527 21.5936C67.7256 21.5105 67.3736 21.4677 66.9971 21.4677C66.1529 21.4677 65.4793 21.7316 65.0244 22.2938C64.578 22.8457 64.376 23.6446 64.376 24.6464C64.376 25.037 64.4207 25.4165 64.5146 25.7831C64.6094 26.1577 64.7615 26.4948 64.9775 26.7909C65.1946 27.0919 65.4813 27.3361 65.8281 27.5184H65.8291C66.1898 27.7077 66.6174 27.7958 67.1016 27.7958C67.4229 27.7957 67.7218 27.7626 67.9941 27.6932L68.2568 27.6122C68.4627 27.5364 68.6485 27.4472 68.8164 27.3495L69.0371 27.8485C68.763 28.0164 68.4527 28.1513 68.0986 28.244L68.0967 28.245C67.6608 28.3616 67.2028 28.4198 66.7168 28.4198C66.0991 28.4198 65.588 28.3251 65.1738 28.1473C64.7556 27.9676 64.4247 27.7197 64.1699 27.4052C63.9457 27.1282 63.7736 26.7951 63.6533 26.4032L63.6055 26.2323C63.4859 25.7596 63.4238 25.2312 63.4238 24.6464C63.4239 23.3919 63.7293 22.4599 64.3018 21.8143L64.3008 21.8134C64.8678 21.1768 65.6959 20.8417 66.8184 20.8417Z" fill="#969696" stroke="#969696" stroke-width="0.512797"/>
<path d="M71.8101 21.0581V25.3208L71.7095 26.6528L71.688 26.9292H72.2808L72.3521 26.7905L73.0132 25.5122L76.4429 21.0581H77.1128V28.2124H76.2808V24.0649L76.478 22.605L76.5171 22.314H75.9058L75.8345 22.4556L75.1313 23.8608L71.6343 28.2153H70.978V21.0581H71.8101Z" fill="#969696" stroke="#969696" stroke-width="0.512797"/>
<path d="M80.4414 21.0581V25.3208L80.3408 26.6528L80.3203 26.9292H80.9131L80.9844 26.7905L81.6455 25.5122L85.0752 21.0581H85.7441V28.2124H84.9121V24.0894L85.1133 22.605L85.1523 22.314H84.54L84.4688 22.4565L83.7656 23.8608L80.2686 28.2153H79.6123V21.0581H80.4414Z" fill="#969696" stroke="#969696" stroke-width="0.512797"/>
<path d="M48.5451 9.69925L48.7025 8.18872H48.6251L48.03 9.56848L45.1823 14.1134H44.7901L41.7717 9.55513L41.2085 8.18872H41.1311L41.35 9.68324V16.4566H40.1304V6.38995H41.0991L44.5259 11.5381L45.0409 12.6589H45.073L45.5587 11.5087L48.8279 6.38995H49.8447V16.454H48.5451V9.69925Z" fill="#969696" stroke="#969696" stroke-width="0.286761" stroke-miterlimit="10"/>
<path d="M57.2583 12.2026L57.306 11.3112H57.2583L56.6176 12.232L53.0975 16.4593H52.377V9.26959H53.6286V13.6544L53.5805 14.5031H53.6419L54.2531 13.6117L57.7731 9.26959H58.5069V16.4593H57.2557V12.2026H57.2583Z" fill="#969696" stroke="#969696" stroke-width="0.286761" stroke-miterlimit="10"/>
<path d="M65.7045 13.2808H62.1682V16.4593H60.9165V9.26959H62.1682V12.2746H65.7045V9.26959H66.9562V16.4593H65.7045V13.2808Z" fill="#969696" stroke="#969696" stroke-width="0.286761" stroke-miterlimit="10"/>
<path d="M76.3885 18.2848H75.5424L75.3076 16.4593H69.3643V9.26959H70.616V15.4532H74.0107V9.26959H75.2624V15.4532H76.3885V18.2848Z" fill="#969696" stroke="#969696" stroke-width="0.286761" stroke-miterlimit="10"/>
<path d="M82.8193 12.2026L82.8675 11.3112H82.8193L82.1788 12.232L78.6585 16.4593H77.938V9.26959H79.1897V13.6544L79.1415 14.5031H79.2056L79.8169 13.6117L83.3372 9.26959H84.071V16.4593H82.8193V12.2026Z" fill="#969696" stroke="#969696" stroke-width="0.286761" stroke-miterlimit="10"/>
<path d="M89.9971 16.5127C89.8181 16.5714 89.634 16.6035 89.4423 16.6141C89.25 16.6248 89.0736 16.6275 88.9192 16.6275C87.969 16.6275 87.2403 16.3206 86.728 15.7067C86.2157 15.0929 85.9619 14.1455 85.9619 12.8592C85.9619 11.6315 86.2424 10.7081 86.808 10.0836C87.3711 9.46179 88.1849 9.14954 89.2474 9.14954C89.5382 9.14954 89.7889 9.16822 89.9971 9.20825V6.39001H91.1873V9.2216C91.3745 9.19224 91.5422 9.17356 91.6893 9.16289C91.836 9.15221 91.975 9.14954 92.1109 9.14954C93.1436 9.14954 93.9205 9.42443 94.4405 9.97686C94.961 10.5293 95.2225 11.442 95.2225 12.715C95.2225 13.3182 95.1533 13.8626 95.0117 14.3457C94.8702 14.8287 94.6651 15.2397 94.3928 15.576C94.1205 15.9123 93.7897 16.1711 93.4 16.3526C93.0077 16.5341 92.5565 16.6248 92.0468 16.6248C91.9534 16.6248 91.8145 16.6168 91.6329 16.6035C91.4514 16.5901 91.3022 16.5634 91.1873 16.5234V19.3283H89.9971V16.5127ZM89.231 15.6801C89.3566 15.6801 89.4823 15.6747 89.6074 15.6667C89.733 15.656 89.8689 15.6374 90.013 15.608V10.1583C89.8879 10.1397 89.7705 10.1236 89.6607 10.1156C89.5515 10.105 89.4182 10.1023 89.2633 10.1023C88.6172 10.1023 88.1131 10.3238 87.7526 10.7721C87.3926 11.2179 87.2136 11.9144 87.2136 12.8645C87.2136 13.2675 87.2536 13.6411 87.3311 13.9854C87.4085 14.3297 87.5311 14.6313 87.6993 14.8848C87.8649 15.1383 88.0782 15.3358 88.3321 15.4745C88.5854 15.6107 88.8869 15.6801 89.231 15.6801ZM91.8734 10.0996C91.7478 10.0996 91.636 10.1023 91.537 10.1076C91.4381 10.113 91.3155 10.1343 91.1688 10.1717V15.6347C91.2729 15.6534 91.3904 15.6667 91.5211 15.6694C91.6519 15.6747 91.796 15.6774 91.9509 15.6774C92.618 15.6774 93.1221 15.4239 93.461 14.9141C93.8 14.4071 93.9708 13.6731 93.9708 12.715C93.9708 11.9011 93.8164 11.2605 93.5092 10.7962C93.2026 10.3345 92.658 10.0996 91.8734 10.0996Z" fill="#969696" stroke="#969696" stroke-width="0.286761" stroke-miterlimit="10"/>
<path d="M97.1181 9.26661H97.9775L98.2124 10.1286H98.2739C98.5139 9.79236 98.8236 9.53616 99.2051 9.36002C99.5867 9.18388 100.022 9.09314 100.51 9.09314C101.554 9.09314 102.33 9.37603 102.84 9.94181C103.35 10.5076 103.606 11.4337 103.606 12.7174C103.606 13.3205 103.52 13.8649 103.347 14.348C103.174 14.831 102.933 15.242 102.618 15.5783C102.306 15.9146 101.927 16.1734 101.484 16.3549C101.041 16.5364 100.548 16.6271 100.006 16.6271C99.619 16.6271 99.3144 16.6058 99.0903 16.5631C98.8662 16.5204 98.6231 16.4457 98.3616 16.3389V19.3306H97.1099V9.26661H97.1181ZM100.278 10.0993C99.7467 10.0993 99.3251 10.2274 99.0185 10.4809C98.7113 10.7344 98.4954 11.1214 98.3698 11.6392V15.2046C98.5565 15.3381 98.7703 15.4422 99.0103 15.5142C99.2503 15.5863 99.5682 15.621 99.9656 15.621C100.686 15.621 101.257 15.3755 101.679 14.8817C102.101 14.388 102.312 13.6621 102.312 12.704C102.312 12.3117 102.274 11.9541 102.202 11.6338C102.13 11.3136 102.013 11.0387 101.85 10.8145C101.687 10.5903 101.479 10.4142 101.226 10.2888C100.969 10.1633 100.654 10.0993 100.278 10.0993Z" fill="#969696" stroke="#969696" stroke-width="0.286761" stroke-miterlimit="10"/>
<path d="M106.83 12.0158C107.081 11.9784 107.321 11.9517 107.551 11.9357C107.78 11.9223 107.999 11.9143 108.207 11.9143C108.738 11.9143 109.184 11.9704 109.544 12.0798C109.905 12.1893 110.193 12.3414 110.412 12.5335C110.63 12.7257 110.785 12.9525 110.873 13.2167C110.961 13.4809 111.007 13.7612 111.007 14.0574C111.007 14.9301 110.742 15.5626 110.217 15.9549C109.691 16.3472 108.837 16.5447 107.66 16.5447C106.993 16.5447 106.299 16.5154 105.579 16.4593V9.26959H106.83V12.0158ZM106.83 15.4532C107.214 15.5119 107.585 15.5386 107.94 15.5386C108.597 15.5386 109.056 15.4212 109.317 15.1863C109.579 14.9514 109.71 14.6179 109.71 14.1882C109.71 13.8038 109.581 13.4889 109.326 13.2381C109.069 12.9899 108.624 12.8645 107.988 12.8645C107.809 12.8645 107.617 12.8698 107.409 12.8778C107.201 12.8885 107.009 12.9152 106.83 12.9632V15.4532ZM112.242 9.26959H113.494V16.4593H112.242V9.26959Z" fill="#969696" stroke="#969696" stroke-width="0.286761" stroke-miterlimit="10"/>
</svg>
