<svg width="115" height="35" viewBox="0 0 115 35" fill="none" xmlns="http://www.w3.org/2000/svg">
<path d="M18.9645 17.4485C18.9566 17.4405 18.7655 17.2415 18.435 17.2415C18.2599 17.2415 18.0807 17.2972 17.9015 17.4008C17.8696 17.4167 17.8497 17.4525 17.8577 17.4884C17.8577 17.4963 17.9891 18.3881 17.8896 18.7704C17.8139 19.057 17.571 19.3955 17.1291 19.3955C17.0335 19.3955 16.938 19.3795 16.8345 19.3516H16.8305L17.165 19.1247C17.1888 19.1087 17.2047 19.0809 17.2047 19.0491C17.2047 19.0172 17.1888 18.9933 17.165 18.9734L16.5 18.5155C16.7111 18.3563 16.8424 18.2448 16.8583 18.2289C16.8783 18.213 16.8902 18.189 16.8902 18.1652C16.8902 18.1413 16.8823 18.1174 16.8623 18.0975L16.7429 17.978C16.727 17.9621 16.7031 17.9502 16.6792 17.9502C16.6593 17.9502 16.6394 17.9582 16.6235 17.9701C16.6155 17.9741 16.4403 18.1094 16.1736 18.2925L15.9068 18.1094L16.9499 17.3928L17.0295 17.5998C17.0415 17.6316 17.0734 17.6555 17.1092 17.6555C17.1092 17.6555 17.1092 17.6555 17.1132 17.6555C17.145 17.6555 17.1769 17.6356 17.1928 17.6078L17.6904 16.692C17.7064 16.6601 17.7025 16.6243 17.6865 16.5965C17.6706 16.5726 17.6427 16.5566 17.6109 16.5566C17.6069 16.5566 17.6029 16.5566 17.5989 16.5566L16.5717 16.7119C16.5359 16.7159 16.508 16.7398 16.496 16.7757C16.4881 16.8075 16.496 16.8433 16.5239 16.8672L16.6911 17.0145L15.5046 17.8307L14.3221 17.0145L14.4894 16.8672C14.5132 16.8433 14.5253 16.8075 14.5133 16.7757C14.5053 16.7398 14.4774 16.7159 14.4416 16.7119L13.4144 16.5566C13.4104 16.5566 13.4064 16.5566 13.4024 16.5566C13.3706 16.5566 13.3428 16.5686 13.3268 16.5965C13.3069 16.6243 13.3069 16.6601 13.3228 16.692L13.8165 17.6078C13.8325 17.6356 13.8643 17.6555 13.8962 17.6555C13.9002 17.6555 13.9002 17.6555 13.9002 17.6555C13.936 17.6555 13.9638 17.6316 13.9798 17.5998L14.0634 17.3928L15.1065 18.1094L14.8398 18.2925C14.573 18.1094 14.3978 17.9741 14.3938 17.9701C14.3779 17.9582 14.358 17.9502 14.3381 17.9502C14.3142 17.9502 14.2903 17.9582 14.2744 17.978L14.155 18.0975C14.139 18.1134 14.1271 18.1373 14.1271 18.1652C14.1271 18.189 14.139 18.213 14.159 18.2289C14.1789 18.2448 14.3102 18.3563 14.5213 18.5155L13.8563 18.9734C13.8325 18.9893 13.8165 19.0172 13.8165 19.0491C13.8165 19.0809 13.8325 19.1048 13.8563 19.1247L14.1908 19.3516C14.1908 19.3516 14.1908 19.3516 14.1868 19.3516C14.0833 19.3795 13.9878 19.3955 13.8922 19.3955C13.4502 19.3955 13.2034 19.057 13.1277 18.7704C13.0282 18.3881 13.1596 17.4963 13.1596 17.4884C13.1636 17.4525 13.1476 17.4167 13.1158 17.4008C12.9326 17.2972 12.7535 17.2415 12.5823 17.2415C12.2479 17.2415 12.0567 17.4366 12.0487 17.4485C12.0328 17.4604 12.0249 17.4844 12.0249 17.5003C12.0209 17.556 11.9174 18.842 12.5146 19.495C12.7336 19.7338 13.0242 19.8573 13.3706 19.8573C13.4304 19.8573 13.498 19.8573 13.5617 19.8454C13.9002 19.8055 14.2306 19.714 14.5531 19.6025L15.1065 19.9767L13.8842 20.8049C13.8603 20.8248 13.8444 20.8487 13.8444 20.8805C13.8444 20.9084 13.8563 20.9363 13.8842 20.9562L15.1105 21.8042L14.0634 22.5288L13.9838 22.3258C13.9718 22.2939 13.9399 22.274 13.9041 22.27C13.9041 22.27 13.9041 22.27 13.9002 22.27C13.8683 22.27 13.8364 22.2899 13.8205 22.3179L13.3268 23.2336C13.3109 23.2614 13.3148 23.3013 13.3308 23.3252C13.3467 23.349 13.3746 23.3649 13.4064 23.3649C13.4104 23.3649 13.4144 23.3649 13.4183 23.3649L14.4456 23.2137C14.4814 23.2097 14.5093 23.1818 14.5173 23.15C14.5292 23.1141 14.5173 23.0783 14.4934 23.0544L14.3221 22.9031L15.5086 22.0829L16.6951 22.9031L16.5239 23.0544C16.496 23.0783 16.4881 23.1141 16.496 23.15C16.504 23.1818 16.5359 23.2057 16.5717 23.2137L17.5989 23.3649C17.6029 23.3649 17.6069 23.3649 17.6109 23.3649C17.6387 23.3649 17.6666 23.353 17.6865 23.3252C17.7064 23.2972 17.7064 23.2614 17.6904 23.2336L17.1928 22.3179C17.1769 22.2899 17.149 22.27 17.1132 22.27H17.1092C17.0694 22.27 17.0415 22.2939 17.0295 22.3258L16.9499 22.5288L15.9028 21.8042L17.1291 20.9562C17.153 20.9403 17.1689 20.9124 17.1689 20.8805C17.1689 20.8487 17.153 20.8248 17.1291 20.8049L15.9068 19.9767L16.4602 19.6025C16.7787 19.7179 17.1092 19.8055 17.4476 19.8454C17.5153 19.8533 17.579 19.8573 17.6387 19.8573C17.9891 19.8573 18.2758 19.7338 18.4947 19.495C19.092 18.842 18.9885 17.556 18.9845 17.5003C18.9845 17.4844 18.9765 17.4644 18.9645 17.4485ZM15.5007 18.3961L15.7634 18.5753C15.6798 18.627 15.5922 18.6828 15.5007 18.7385C15.4091 18.6828 15.3215 18.631 15.2379 18.5753L15.5007 18.3961ZM14.5451 19.0531L14.9075 18.8022C14.9791 18.846 15.0507 18.8938 15.1304 18.9456C14.9871 19.0212 14.8437 19.0928 14.7004 19.1605L14.5451 19.0531ZM16.4364 20.8805L15.5007 21.5255L14.569 20.8805L15.5007 20.2475L16.4364 20.8805ZM15.5007 19.702L15.0507 19.3955C15.21 19.3198 15.3574 19.2442 15.5007 19.1645C15.644 19.2442 15.7953 19.3198 15.9545 19.3955L15.5007 19.702ZM16.3049 19.1605C16.1616 19.0968 16.0143 19.0251 15.8709 18.9456C15.9506 18.8978 16.0222 18.85 16.0939 18.8022L16.4602 19.0531L16.3049 19.1605Z" fill="#969696"/>
<path d="M31.0428 15.0194C30.6606 14.7885 30.0275 14.7089 29.3825 14.7686C30.3898 14.4183 31.0786 13.6698 31.1145 13.0008C30.5889 12.8496 30.0434 12.9292 29.5697 13.0367C30.0594 12.6704 30.8636 12.0015 30.7641 11.0181C30.2903 10.9026 29.4224 11.2331 29.0601 11.3964C30.2226 10.7433 30.6407 9.19854 30.0235 8.32267C29.6573 8.53764 27.997 10.2338 27.7263 10.4288C28.5863 9.44541 28.9884 8.74067 29.2193 8.07978C29.494 7.35914 29.514 6.10099 28.6221 5.67896C28.2 6.64248 26.727 9.11492 25.9068 10.1422C25.8152 10.0626 25.7436 9.95507 25.6281 9.9351C25.433 10.5602 24.8517 11.3924 24.3222 11.7905C24.2943 11.7387 24.2426 11.5954 24.151 11.4401C23.5897 12.2802 22.1324 13.4309 21.6626 14.1396C21.2964 14.6651 21.2964 15.1389 21.806 15.6286C22.013 15.8356 22.4032 16.1979 22.0648 16.7076C21.603 17.3804 20.6753 17.4601 20.1736 17.0619C20.1736 16.9425 20.1696 16.827 20.1657 16.7195C20.7589 16.4886 20.8982 15.6804 20.4603 15.1787C20.3647 15.3618 20.2055 15.4973 20.0144 15.5649C19.9626 15.3539 19.9188 15.2544 19.9148 15.2424L19.8909 15.1946H19.8392C19.8352 15.1946 19.6401 15.1827 19.3495 15.1509C19.6799 15.0434 19.8909 14.7367 19.8432 14.3267C19.3335 14.7647 18.824 14.3466 18.7084 14.2311C18.39 13.8569 18.2984 13.4348 18.4258 12.7898C18.5333 12.2285 19.1146 11.3366 19.4968 11.05C19.5526 11.1017 19.6401 11.2092 19.8272 11.1933C19.9348 11.1574 20.1139 11.0659 20.2493 11.0141C20.6355 10.8986 21.0097 10.9862 21.2486 11.1415C21.6865 11.4083 21.6467 11.7029 21.6348 11.9179C22.2997 11.5436 22.0688 10.9185 21.1968 10.6876C21.7941 10.6876 22.2838 11.2331 22.4111 11.3008C22.7416 11.5436 23.2154 11.4879 23.4901 11.3565C24.0197 11.1057 24.1272 10.4806 23.9838 10.3532C23.9321 10.5762 23.7609 10.7752 23.4542 10.811C23.0004 10.8628 22.5625 10.6678 22.2161 10.5125C21.9215 10.389 21.4477 10.2974 21.1251 10.3174C21.7224 9.98689 22.6501 10.0227 22.9805 10.5323C23.1795 10.3731 23.303 10.2298 23.3587 9.8993C23.5299 9.00743 22.8332 8.54957 22.0887 8.54957C22.1086 8.3346 21.9573 8.22712 21.7582 8.29872C21.7582 8.20719 21.7343 8.13552 21.6825 8.09969C21.6985 8.09969 21.7224 8.09172 21.7383 8.09172C22.4868 8.03996 23.1955 7.80904 23.5777 7.40691C24.2466 6.69025 23.1795 5.78248 23.5618 5.07777C23.9281 5.23702 24.1988 5.44406 24.7044 5.51572C24.7562 5.62322 24.804 5.83822 24.8199 5.95368C24.9831 6.74998 24.1988 6.88136 24.4019 7.72941C24.4895 8.11561 24.7801 8.24701 24.8757 8.70487C24.8757 8.70487 24.9115 9.02335 24.6328 9.30212C25.2777 9.31803 25.6162 8.77257 25.4171 8.2669C25.3295 8.05987 25.1065 7.86478 25.1065 7.62191C25.437 8.05987 25.7316 8.04395 26.2412 7.88071C26.4722 7.80904 26.4921 8.13154 26.3488 8.39037C26.6991 8.18329 26.7867 7.84487 26.7867 7.69357C26.7867 7.33525 26.508 7.16803 26.2412 7.23969C26.09 7.25562 25.7874 7.46265 25.7674 7.16803C25.7038 6.6584 26.508 6.67831 26.3447 5.85812C26.2572 5.44804 25.7993 5.22109 25.0866 5.1335C25.015 5.06184 24.8358 4.89063 24.7402 4.7473C24.3501 4.09833 23.944 3.92712 23.7011 4.05851C23.4145 4.20184 23.2671 4.32527 23.0323 4.45268C22.8451 4.55221 22.6461 4.60397 22.5226 4.7473C22.2121 5.1335 22.5067 5.73072 22.666 6.09702C22.7735 6.31201 23.0323 6.80173 22.9168 7.16803C22.7894 7.60599 22.0688 7.88071 21.6308 7.97228C21.603 7.97228 21.583 7.98024 21.5552 7.98024V7.80904C21.6825 7.58607 21.7901 7.31932 21.8777 7.07646C22.1723 6.28813 21.7343 5.96961 21.0854 5.81831C21.0017 5.76655 20.9142 5.74665 20.8067 5.78248H20.7868L20.7709 5.91387L20.6833 5.886L20.7032 5.72674H20.6633C20.739 5.67498 20.7709 5.58341 20.7709 5.49582C20.7709 5.40026 20.735 5.32461 20.6992 5.27285H20.7868L20.7509 5.23702C20.735 5.20119 20.6992 5.16535 20.6434 5.10961C20.6275 5.09369 20.6076 5.05785 20.6076 5.03795C20.6235 5.05387 20.6434 5.07378 20.6793 5.08971C20.7151 5.12554 20.7669 5.16137 20.7868 5.19721L20.8385 5.23304V4.51239L20.7868 4.55619C20.7709 4.57212 20.7151 4.60795 20.6793 4.64776C20.6434 4.6836 20.6275 4.6836 20.6076 4.69952C20.6076 4.6836 20.6235 4.66369 20.6434 4.62786C20.6992 4.59202 20.735 4.54027 20.7509 4.51239L20.7868 4.45665H20.0542L20.09 4.51239C20.1259 4.53628 20.1696 4.59202 20.2055 4.62786C20.2214 4.66369 20.2413 4.6836 20.2572 4.69952C20.2373 4.6836 20.2055 4.6836 20.1855 4.64776C20.1219 4.61193 20.09 4.5761 20.0542 4.55619L20.0263 4.51239V5.24498L20.0621 5.20915C20.098 5.17332 20.1338 5.13748 20.1935 5.10165C20.2135 5.08573 20.2453 5.06582 20.2652 5.0499C20.2453 5.06582 20.2294 5.10165 20.2135 5.12156C20.1776 5.1773 20.1299 5.20915 20.0979 5.24896L20.0621 5.28479H20.1776C20.1139 5.33656 20.0979 5.4122 20.0979 5.50776C20.0979 5.59535 20.1338 5.68693 20.1935 5.73868H20.1776L20.1935 5.89794L20.0979 5.92581L20.0781 5.79442H20.0621C19.9547 5.75859 19.8671 5.7785 19.7954 5.83025C19.1345 5.98155 18.6965 6.30405 18.9912 7.0884C19.0827 7.33127 19.1903 7.59802 19.3216 7.82098V7.93645C18.6607 7.72145 17.4703 6.99683 17.1518 6.55887C17.1159 6.51507 17.0881 6.47924 17.0721 6.45137H17.0682L17.0801 5.97757C17.311 5.59137 17.5181 5.11758 17.6773 4.6836C18.0954 3.54888 17.4782 3.07509 16.4988 2.88C16.3993 2.80833 16.2758 2.7725 16.1127 2.82824L16.0768 3.00741L15.8698 2.99148L15.8857 2.76056C15.8578 2.76852 15.8219 2.76852 15.7861 2.76852C15.9255 2.69686 16.0251 2.52565 16.0251 2.35047C16.0251 2.22306 15.9613 2.07177 15.8538 2.0001H16.0251C15.9255 1.9125 15.7663 1.72538 15.7344 1.59797C15.8578 1.63381 16.045 1.80102 16.1325 1.8926V0.964921C16.045 1.03659 15.8578 1.21575 15.7344 1.23168C15.7663 1.12816 15.9255 0.948996 16.0251 0.857422H15.0974C15.169 0.948996 15.3482 1.12816 15.3642 1.23168C15.2566 1.21575 15.0774 1.03659 14.9779 0.964921V1.8926C15.0774 1.80102 15.2526 1.63381 15.3642 1.59797C15.3482 1.72139 15.169 1.90853 15.0974 2.0001H15.2566C15.1491 2.07177 15.0974 2.22306 15.0974 2.35047C15.0974 2.52565 15.185 2.70083 15.3283 2.76852C15.2925 2.76852 15.2566 2.76852 15.2009 2.75259L15.2208 2.98352L15.0138 2.99944L14.9939 2.82028C14.8346 2.76852 14.7112 2.80436 14.6037 2.87204C13.6322 3.07111 13.0151 3.54092 13.4332 4.67563C13.5765 5.10961 13.7836 5.58739 14.0303 5.96961V6.45933C14.0144 6.47525 13.9945 6.51108 13.9587 6.54692C13.6481 6.98488 12.4497 7.7095 11.7888 7.9245V7.80904C11.9203 7.58607 12.0317 7.31932 12.1193 7.07646C12.4139 6.28813 11.976 5.96961 11.3151 5.81831C11.2394 5.76655 11.1558 5.74665 11.0483 5.78248H11.0324L11.0125 5.91387L10.9249 5.886L10.9408 5.72674H10.9249C10.9766 5.67498 11.0125 5.58341 11.0125 5.49582C11.0125 5.40026 10.9966 5.32461 10.9408 5.27285H11.0483L11.0125 5.23702C10.9766 5.20119 10.9408 5.16535 10.905 5.10961C10.889 5.09369 10.8612 5.05785 10.8413 5.03795C10.8612 5.05387 10.905 5.07378 10.9209 5.08971C10.9726 5.12554 11.0085 5.16137 11.0483 5.19721L11.0842 5.23304V4.51239L11.0483 4.55619C11.0125 4.57212 10.9766 4.60795 10.9209 4.64776C10.905 4.6836 10.8612 4.6836 10.8413 4.69952C10.8612 4.6836 10.885 4.66369 10.905 4.62786C10.9408 4.59202 10.9766 4.54027 11.0125 4.51239L11.0483 4.45665H10.3157L10.3516 4.51239C10.3675 4.53628 10.4152 4.59202 10.4511 4.62786C10.4869 4.66369 10.5028 4.6836 10.5028 4.69952C10.4909 4.67962 10.471 4.67962 10.4392 4.64379C10.3954 4.60795 10.3397 4.57212 10.3237 4.55221L10.268 4.50841V5.24101L10.3237 5.20517C10.3397 5.16934 10.3954 5.1335 10.4392 5.09767C10.475 5.08174 10.4909 5.06184 10.5068 5.04591C10.5068 5.06184 10.4909 5.09767 10.4551 5.11758C10.4192 5.17332 10.3715 5.20517 10.3556 5.24498L10.3197 5.28082H10.4152C10.3715 5.33258 10.3316 5.40822 10.3316 5.50378C10.3316 5.59137 10.3675 5.68294 10.4511 5.7347H10.4152L10.4352 5.89396L10.3357 5.92183L10.3197 5.79044H10.2998C10.1923 5.75461 10.1047 5.77452 10.033 5.82628C9.37214 5.97757 8.93417 6.30007 9.22885 7.08441C9.32043 7.32728 9.42791 7.59404 9.55927 7.817V7.98821C9.53142 7.98821 9.50755 7.98024 9.48758 7.98024C9.04969 7.88867 8.3171 7.61395 8.19371 7.17599C8.07819 6.80969 8.33699 6.31997 8.44448 6.10498C8.61569 5.73868 8.90234 5.14147 8.59978 4.75526C8.46437 4.61193 8.26929 4.56018 8.07819 4.46064C7.8473 4.33721 7.70394 4.2098 7.40933 4.06647C7.17444 3.93509 6.7763 4.1023 6.3702 4.75526C6.28261 4.8986 6.09549 5.06582 6.01984 5.14147C5.31514 5.22906 4.86126 5.45202 4.76173 5.86609C4.59849 6.68627 5.40273 6.67035 5.35097 7.17599C5.33106 7.47062 5.02051 7.26358 4.87718 7.24765C4.59849 7.17599 4.32378 7.34321 4.32378 7.70154C4.32378 7.85284 4.42331 8.19126 4.76173 8.39833C4.61839 8.1395 4.63432 7.817 4.87718 7.88867C5.3868 8.05191 5.66948 8.06784 6.00391 7.62987C6.00391 7.86876 5.78892 8.06783 5.69337 8.27485C5.49429 8.78451 5.82475 9.32599 6.4777 9.31008C6.18307 9.03138 6.2428 8.71283 6.2428 8.71283C6.33437 8.25496 6.62102 8.12358 6.71658 7.73737C6.91565 6.88932 6.12733 6.75793 6.29854 5.96165C6.31446 5.84618 6.35029 5.63119 6.40603 5.52369C6.91565 5.45202 7.19434 5.24896 7.54872 5.08573C7.91501 5.79044 6.85991 6.69822 7.53273 7.41488C7.91899 7.817 8.6316 8.04792 9.37214 8.09969C9.38805 8.09969 9.412 8.10765 9.43189 8.11163C9.3801 8.14746 9.35225 8.21515 9.35225 8.30675C9.15717 8.23507 9.00585 8.34256 9.03377 8.55753C8.26531 8.55753 7.5885 9.01539 7.75573 9.90725C7.80745 10.2377 7.9349 10.381 8.14191 10.5403C8.46437 10.0307 9.39203 9.99485 9.99724 10.3253C9.66675 10.3054 9.19297 10.397 8.90234 10.5204C8.55992 10.6717 8.126 10.8708 7.67211 10.819C7.35758 10.7832 7.19832 10.5881 7.13463 10.3611C6.99129 10.4886 7.09879 11.1096 7.63233 11.3645C7.89902 11.4959 8.3728 11.5516 8.70329 11.3088C8.83066 11.2371 9.32043 10.6956 9.92158 10.6956C9.05366 10.9265 8.81077 11.5516 9.49156 11.9258C9.46372 11.7109 9.43189 11.4163 9.86581 11.1495C10.1087 10.9982 10.4909 10.9066 10.8691 11.022C11.0006 11.0738 11.1797 11.1654 11.2872 11.2012C11.4743 11.2172 11.5619 11.1096 11.6176 11.0579C12.0038 11.3446 12.5652 12.2364 12.6887 12.7978C12.824 13.4428 12.7245 13.8609 12.402 14.2391C12.2945 14.3545 11.7769 14.7726 11.2713 14.3347C11.2235 14.7447 11.4345 15.0473 11.765 15.1588C11.4704 15.1906 11.2713 15.2026 11.2673 15.2026H11.2155L11.1956 15.2504C11.1917 15.2583 11.1478 15.3618 11.0921 15.5689C10.909 15.4973 10.7497 15.3658 10.6542 15.1827C10.2162 15.6844 10.3516 16.4886 10.9408 16.7195C10.9368 16.831 10.9329 16.9465 10.9329 17.0699C10.4273 17.4601 9.51153 17.3764 9.05764 16.7076C8.70726 16.1979 9.10936 15.8316 9.30849 15.6286C9.81807 15.1389 9.81807 14.6651 9.4478 14.1396C8.97403 13.4348 7.52079 12.2802 6.95945 11.4401C6.86787 11.5914 6.81611 11.7347 6.79621 11.7905C6.27067 11.3924 5.68142 10.5602 5.48633 9.9351C5.37884 9.95109 5.29921 10.0626 5.20764 10.1422C4.39544 9.11492 2.91436 6.64248 2.49632 5.67896C1.61245 6.10099 1.62838 7.35914 1.89911 8.07978C2.138 8.74067 2.54012 9.44541 3.38815 10.4288C3.1214 10.2298 1.46116 8.53764 1.09488 8.32267C0.481747 9.19854 0.899792 10.7433 2.05837 11.3964C1.70403 11.2331 0.828125 10.9026 0.354343 11.0181C0.266753 12.0015 1.05905 12.6704 1.54876 13.0367C1.07099 12.9292 0.525544 12.8496 0 13.0008C0.0358328 13.6698 0.732574 14.4222 1.71199 14.7686C1.08692 14.7049 0.453877 14.7885 0.0676836 15.0194C0.139348 15.7162 0.927662 16.3174 1.87124 16.4607C1.23821 16.5324 0.676835 16.8111 0.382212 17.1933C0.728588 17.6472 1.23821 17.9976 2.01458 17.9817C1.83541 18.0454 1.62838 18.1688 1.4532 18.336C1.43329 18.3201 1.39746 18.3002 1.36561 18.3002C1.3258 18.3161 1.31385 18.3718 1.3258 18.4077C1.3258 18.4077 1.3258 18.4077 1.3258 18.4355C1.25016 18.4873 1.21034 18.551 1.20237 18.6147C1.13071 18.7182 1.05507 18.8376 1.01525 18.9452C1.03515 18.9532 1.05108 18.973 1.06701 18.981C1.06302 19.0368 1.07895 19.1044 1.12275 19.1721C1.08692 19.208 1.07099 19.2597 1.05108 19.3155L0.597204 19.1323C0.57332 19.5463 0.664893 19.8848 0.871922 20.0958C1.03515 20.2829 1.22229 20.2551 1.16655 20.3188L1.66024 20.6214C1.74782 20.8085 1.92698 20.8085 2.0504 20.7568C2.0504 20.7568 2.0504 20.7727 2.0504 20.7926C2.0504 20.9876 2.18578 21.1469 2.36096 21.2106C2.32512 21.3738 2.39679 21.4773 2.61975 21.553L4.47507 26.0521C4.4034 26.267 4.47507 26.4542 4.6383 26.5259C4.59849 26.5776 4.56664 26.6333 4.56664 26.7408C4.6383 26.6891 4.7458 26.6692 4.79756 26.8205C4.83339 26.9279 4.6383 27.2743 4.93292 27.5093C4.89311 27.7163 5.00459 27.9273 5.2156 28.0189C5.2156 28.1264 5.31514 28.4728 5.33106 28.5962C5.19968 28.7834 4.89311 29.07 4.93292 29.3845C4.96876 29.6075 5.05634 29.6792 5.23551 29.7349C5.16384 30.1371 5.3868 30.3162 5.72522 30.3361C5.72522 30.6307 5.99993 30.7342 6.17909 30.7541C6.35029 30.8816 6.42196 30.9333 6.61705 31.0329C6.43789 31.2439 6.56528 31.5226 6.89176 31.6142C6.92759 31.7376 7.01916 31.8451 7.20231 31.8889C7.3098 32.068 7.50488 32.068 7.62032 32.0162C7.69201 31.9804 7.81946 31.7734 7.70792 31.5943C7.7796 31.5067 7.7438 31.3355 7.69201 31.228C7.79949 31.0329 7.70792 30.79 7.56065 30.7183C7.58054 30.6108 7.52477 30.4396 7.48897 30.3361C7.74778 30.1729 8.07023 29.9698 8.18567 29.8981C8.81873 29.4443 9.5354 29.0382 10.3476 28.9864C10.5546 28.9665 10.9368 28.9506 11.1518 28.9665C11.4823 29.0023 11.9362 29.1018 12.2029 28.8948C12.2865 28.843 12.3383 28.7514 12.3224 28.6639C12.2866 28.4568 12.0636 28.2777 11.9919 28.0945C11.972 28.0388 11.9402 27.9552 11.9043 27.8796C12.1352 27.9193 12.3502 27.8875 12.4816 27.8238C12.6249 27.7721 12.9713 27.5133 12.9554 27.1271C12.6767 27.2584 12.0078 27.4376 11.9362 26.7608C11.8645 26.1635 12.3901 25.6539 13.2141 25.8769C13.7755 26.0202 14.5957 27.2147 13.8472 27.7362C13.4809 27.987 12.9195 28.226 12.9912 28.8789C13.2301 28.5843 13.5526 28.4409 13.9707 28.4767C13.3575 28.9306 12.8837 28.9864 12.2387 29.3328C11.6774 29.6632 11.2593 30.2087 10.8174 30.2246C10.479 30.2406 10.2918 29.8384 10.6223 29.5279C10.2918 29.4562 9.85388 29.715 9.73048 30.0614C9.5712 30.5352 9.69467 30.8736 9.98928 31.0647C9.59117 31.2797 9.2925 31.6978 9.43587 32.2949C9.5712 32.7847 10.061 32.7847 9.87384 33.4098C10.1486 33.3381 10.3277 33.151 10.4073 32.8842C10.4432 32.6971 10.479 32.502 10.5705 32.4105C10.5308 32.7847 10.7457 33.3381 11.2593 33.589C11.6057 33.7602 12.1512 33.8278 12.5692 33.3939C12.7404 33.8836 13.3177 34.3056 13.9189 34.2857C14.1936 34.2857 14.4643 34.1663 14.6674 34.0468C14.8107 34.4092 15.177 34.7794 15.5393 34.9546C15.9135 34.7794 16.2798 34.4092 16.4311 34.0468C16.6302 34.1702 16.9049 34.2857 17.1717 34.2857C17.749 34.3017 18.3581 33.8836 18.5213 33.3939C18.9394 33.8278 19.4849 33.7602 19.8313 33.589C20.3408 33.3381 20.5558 32.7847 20.52 32.4105C20.6156 32.502 20.6514 32.6971 20.6912 32.8842C20.7629 33.151 20.938 33.3381 21.2167 33.4098C21.0296 32.7847 21.5313 32.7847 21.6547 32.2949C21.7981 31.6978 21.5034 31.2757 21.1092 31.0647C21.3959 30.8776 21.5313 30.5391 21.3601 30.0614C21.2367 29.715 20.7987 29.4562 20.4682 29.5279C20.7987 29.8384 20.6195 30.2406 20.2731 30.2246C19.8352 30.2087 19.4172 29.6592 18.8518 29.3328C18.2108 28.9824 17.737 28.9306 17.1199 28.4767C17.538 28.4409 17.8684 28.5843 18.0993 28.8789C18.171 28.226 17.6096 27.987 17.2434 27.7362C16.5028 27.2147 17.315 26.0202 17.8883 25.8769C18.7005 25.6539 19.238 26.1635 19.1544 26.7608C19.0668 27.4416 18.4138 27.2624 18.1192 27.1271C18.1192 27.5093 18.4656 27.7681 18.6089 27.8238C18.7761 27.9034 19.0867 27.9473 19.3614 27.8278C19.3534 27.8955 19.3415 27.9672 19.3415 27.987C19.2858 28.5683 18.9752 28.6201 19.0827 28.859C19.234 29.0382 20.2334 29.0023 20.5041 29.0581C20.9779 29.1218 21.38 29.2969 21.8339 29.3886C22.3435 29.496 22.8849 29.496 23.3428 29.6832C23.6374 29.8105 23.9679 30.0495 24.2545 30.1927C24.6925 30.2644 24.6208 30.4436 24.8995 30.4436C25.1504 30.4436 25.2459 30.2286 25.5684 30.141C25.7914 30.0892 26.0422 30.1768 26.2652 30.1052C26.4283 30.0693 26.5 29.9021 26.6513 29.8105C26.8305 29.7031 27.0813 29.7031 27.2485 29.5478C27.3361 29.4681 27.356 29.3169 27.3401 29.2094L27.3441 29.2333C27.6865 28.9943 27.9453 28.644 28.0886 28.2419C28.1762 28.226 28.2479 28.1463 28.2479 28.0547C28.2479 28.0388 28.2479 28.0189 28.2479 28.0189C28.3355 27.9473 28.3911 27.8397 28.3911 27.7322C28.3911 27.5969 28.3394 27.4894 28.2479 27.4018C28.2479 27.4018 28.2479 27.3818 28.2479 27.3659C28.2479 27.2942 28.2121 27.2425 28.1762 27.1947C28.0329 26.4184 27.4436 25.7933 26.6832 25.5982C26.6832 25.5783 26.6832 25.5783 26.6832 25.5623H26.6673C26.6673 25.5265 26.6513 25.5066 26.6235 25.5066C26.5159 25.3991 26.3886 25.2319 26.3726 25.1244C26.496 25.1602 26.7031 25.3553 26.8105 25.4349V24.4077C26.7031 24.4874 26.5 24.6825 26.3726 24.7183C26.3886 24.5909 26.5836 24.3679 26.6832 24.2803H25.6401C25.7356 24.3679 25.9347 24.5909 25.9506 24.7183C25.8272 24.6825 25.6202 24.4874 25.5167 24.4077V25.4349C25.6241 25.3553 25.8272 25.1602 25.9506 25.1244C25.9347 25.2518 25.7356 25.4747 25.6401 25.5623L25.6759 25.5783C24.8995 25.7575 24.2744 26.4025 24.1311 27.1947C24.0793 27.2385 24.0435 27.2942 24.0435 27.3659C24.0435 27.3818 24.0435 27.4018 24.0435 27.4018C23.952 27.4894 23.9002 27.5969 23.9002 27.7322C23.9002 27.8357 23.952 27.9473 24.0435 28.0189C24.0435 28.0189 24.0435 28.0349 24.0435 28.0547C24.0435 28.1702 24.1152 28.226 24.2027 28.2419C24.2386 28.3414 24.2824 28.4409 24.3302 28.5285C24.3302 28.5206 24.3302 28.5206 24.3421 28.5086C24.2784 28.8032 23.9201 28.9824 23.8405 28.9824C23.2035 29.074 22.4987 28.8032 21.8577 28.5643C21.5751 28.4568 21.1889 28.3334 21.0017 28.0547C20.8863 27.8517 20.8345 27.7243 20.8943 27.5451C20.9659 27.6327 21.0814 27.7322 21.2446 27.8198C21.2606 27.7322 21.2606 27.6327 21.2964 27.561C21.4596 27.8039 21.7184 27.9273 22.0289 27.9114C21.8418 27.7521 21.7542 27.3301 21.8418 26.9638C22.1006 27.4018 23.084 27.4894 23.2631 26.705C22.8969 26.8762 22.662 26.6891 22.5943 26.4901C22.4868 26.1755 22.8451 25.415 22.5226 24.8297C22.2639 24.3918 21.9692 24.1251 21.2844 24.0175C21.3362 23.9339 21.3561 23.8623 21.372 23.7388C20.739 23.9698 20.1935 23.7906 19.9348 23.2849C20.0621 23.3367 20.2453 23.3566 20.4245 23.3566C19.8631 22.8987 19.8989 21.6048 20.3011 20.9359C20.3528 20.9001 20.3727 20.8642 20.4245 20.8483C20.5479 21.0991 20.9142 21.0991 21.1013 21.3022C21.173 21.2305 21.2088 21.2106 21.2804 21.1509C21.2804 21.1509 21.2964 22.214 21.368 22.6519C21.4397 23.1416 21.9135 23.0898 22.1564 23.3049C22.443 22.9903 22.9606 23.0062 22.8809 22.4647C22.8093 21.9233 22.7018 21.4296 22.6859 21.0633C22.8451 21.3938 23.1596 22.636 23.2831 22.9903C23.4861 23.5159 23.9957 23.3566 24.2824 23.5636C24.4695 23.1973 24.9433 23.0898 24.7562 22.5364C24.7044 22.3931 23.9281 20.7607 23.8126 20.4462C24.0873 20.8483 24.8398 22.2856 25.0707 22.6877C25.3295 23.1058 25.8033 22.9027 26.1417 23.0062C26.2054 22.7037 26.6633 22.3533 26.3288 21.8277C25.9108 21.131 24.9274 19.9166 24.8757 19.7454C25.0707 19.9325 26.5956 21.8277 26.715 21.9312C27.0693 22.2418 27.587 22.0029 27.8935 22.0029C27.8935 21.6565 28.1682 21.2624 27.7701 20.8603C27.4038 20.5099 26.5637 19.9126 26.3846 19.7096C26.9459 20.0958 27.6068 20.7089 28.001 20.8085C28.6978 20.9876 28.9485 20.7089 29.2073 20.6015C28.9924 19.9684 29.279 19.6738 27.8059 19.0567C29.08 19.5105 29.6453 19.2875 30.0992 18.9292C29.92 18.4753 29.4662 18.0931 29.0959 17.9657C29.8762 17.9817 30.3938 17.6353 30.7323 17.1774C30.4456 16.7952 29.8762 16.5165 29.2233 16.4448C30.1868 16.3135 30.9552 15.7162 31.0428 15.0194ZM1.48903 19.6977C1.47311 19.6977 1.47311 19.7136 1.4532 19.7335C1.34571 19.7176 1.34571 19.5902 1.36561 19.4827C1.41737 19.4827 1.4532 19.4667 1.48903 19.4309L1.50496 19.4508L1.4532 19.4867C1.47311 19.5543 1.47311 19.626 1.48903 19.6977ZM1.8394 20.4462L1.66421 20.3427C1.73588 20.259 1.80356 20.259 1.87523 20.3069C1.87523 20.3586 1.87523 20.4104 1.8394 20.4462ZM2.36494 19.3314C2.34105 19.3314 2.31716 19.3314 2.29328 19.3314C2.28929 19.3274 2.28531 19.3194 2.28133 19.3155C2.31318 19.3075 2.34901 19.3075 2.37688 19.2995C2.37688 19.3075 2.36892 19.3194 2.36494 19.3314ZM12.4896 32.3746C12.0516 32.3746 11.7411 32.0999 11.964 31.7137C12.0795 31.8889 12.3104 31.9685 12.5095 31.9884C12.4896 32.1715 12.4896 32.2233 12.4896 32.3746ZM19.1504 31.7137C19.3734 32.0999 19.0628 32.3746 18.6249 32.3746C18.6249 32.2233 18.6249 32.1715 18.589 31.9884C18.7921 31.9725 19.031 31.8968 19.1504 31.7137ZM12.4737 8.07978C13.473 7.86478 14.4922 7.30339 14.9501 6.8296C15.3283 6.85349 15.818 6.85747 16.1882 6.83359C16.6381 7.31136 17.6415 7.8608 18.6448 8.07579C18.0635 8.07579 17.0483 8.02404 16.9208 7.88071C16.9567 8.24701 17.733 8.66103 18.2426 8.77257C17.8206 8.82429 17.4305 8.77257 17.1 8.62125C17.2792 8.88006 17.4862 9.07514 17.8246 9.19058C17.4703 9.62855 16.7377 9.91123 16.0131 9.84353C16.1922 10.0586 16.5227 10.1939 16.8094 10.1541C16.1564 11.1932 15.6747 12.2603 15.5592 13.4946H15.5553V13.4986C15.4477 12.2603 14.966 11.1932 14.317 10.1541C14.6116 10.1899 14.9341 10.0586 15.1014 9.84353C14.3688 9.91521 13.6641 9.62855 13.2978 9.19058C13.6402 9.07514 13.8432 8.88006 14.0224 8.62125C13.6999 8.77257 13.2978 8.82429 12.8798 8.77257C13.3893 8.65706 14.1737 8.24701 14.2095 7.88071C14.0702 8.02802 13.0549 8.07978 12.4737 8.07978ZM3.3125 19.0646C3.22093 19.1044 3.10945 19.1522 3.02584 19.188C3.02584 19.1801 3.02584 19.1721 3.02584 19.1641C3.11344 19.1283 3.22492 19.0964 3.3125 19.0646ZM9.73843 23.7428C9.75832 23.8663 9.77431 23.9379 9.82603 24.0215C9.13728 24.129 8.84665 24.3958 8.5958 24.8337C8.24542 25.423 8.61171 26.1834 8.51218 26.494C8.4405 26.6891 8.2136 26.8802 7.8473 26.709C8.02647 27.4974 9.00585 27.4058 9.26466 26.9678C9.35225 27.3341 9.26466 27.7562 9.08549 27.9154C9.39203 27.9313 9.65084 27.8079 9.81012 27.565C9.84592 27.6367 9.84592 27.7362 9.86183 27.8238C10.033 27.7362 10.1405 27.6367 10.2122 27.5491C10.2401 27.6367 10.272 27.8437 10.2321 28.0109C10.1007 28.0985 9.9534 28.1821 9.72252 28.3016C9.35623 28.4808 8.68737 28.7395 8.30517 28.7913C7.99059 28.843 7.44513 28.6639 7.30582 28.226C7.17842 27.8079 6.83204 27.6725 6.55732 27.9313C6.48566 27.8796 6.29057 27.8397 6.20696 27.9711C6.20696 27.9711 6.11938 27.7721 6.01188 27.6765C6.08354 27.4615 6.0278 27.2027 5.83272 27.1151C5.81679 26.6931 5.558 26.6931 5.46643 26.5497C5.41467 26.4621 5.41467 26.3507 5.53809 26.3348C5.48634 26.2551 5.37486 26.2392 5.35893 26.2392C5.39477 26.06 5.33903 25.837 5.10014 25.7654L2.98205 21.3938C3.11742 21.2504 3.04575 21.0434 2.89446 20.9717C2.89446 20.9717 2.89446 20.9558 2.89446 20.9359C2.9064 20.9001 2.91039 20.8762 2.91436 20.8483C2.9701 20.8403 3.04177 20.8244 3.10149 20.8085C3.51953 20.7089 4.17248 20.0958 4.73784 19.7096C4.53877 19.9166 3.71861 20.5139 3.35232 20.8603C3.00992 21.1986 3.15325 21.5371 3.20899 21.8436L3.28861 22.0148C3.59916 22.0348 4.06499 22.2219 4.41136 21.9352C4.51886 21.8277 6.04771 19.9325 6.25076 19.7494C6.17113 19.9206 5.20764 21.135 4.76969 21.8317C4.4472 22.3573 4.92098 22.7037 4.97672 23.0102C5.3231 22.9027 5.79688 23.1097 6.04771 22.6917C6.29057 22.2896 7.0311 20.8523 7.30582 20.4501C7.19832 20.7647 6.41399 22.3971 6.35825 22.5404C6.17113 23.0938 6.64491 23.2013 6.83204 23.5676C7.1187 23.3606 7.63233 23.5238 7.83139 22.9943C7.95479 22.6399 8.26929 21.3978 8.43254 21.0673C8.41265 21.4336 8.30517 21.9272 8.23349 22.4687C8.1618 23.0142 8.67146 22.9943 8.93822 23.3089C9.19695 23.0938 9.67073 23.1456 9.74241 22.6558C9.81409 22.218 9.83001 21.1549 9.83001 21.1549C9.90169 21.2186 9.93749 21.2345 10.0171 21.3062C10.1923 21.0991 10.5626 21.0991 10.686 20.8523C10.7418 20.8682 10.7577 20.904 10.8134 20.9399C11.2155 21.6088 11.2474 22.9027 10.686 23.3606C10.8492 23.3606 11.0523 23.3407 11.1758 23.2889C10.9289 23.7946 10.3755 23.9737 9.73843 23.7428ZM13.696 29.8584C13.3655 30.3122 13.1067 30.6427 12.8917 31.2081C12.5055 31.1722 12.5812 30.6984 12.7046 30.4595C12.9634 29.9857 14.0144 29.3686 14.544 28.7515C14.309 29.1457 13.9826 29.504 13.696 29.8584ZM14.8386 30.6984C14.6236 31.5345 14.4723 32.7688 14.544 33.3222C13.8034 32.936 14.2215 31.4469 14.5081 30.8059C14.9063 29.914 15.185 28.8231 15.2766 28.1264C15.5074 28.6559 14.9939 30.1331 14.8386 30.6984ZM16.5705 33.3222C16.6421 32.7688 16.4988 31.5345 16.2758 30.6984C16.1206 30.1331 15.611 28.6559 15.8379 28.1264C15.9255 28.8231 16.2042 29.9101 16.6063 30.8059C16.893 31.4469 17.311 32.936 16.5705 33.3222ZM18.4099 30.4555C18.5373 30.6984 18.6089 31.1682 18.2227 31.204C18.0078 30.6387 17.749 30.3122 17.4305 29.8544C17.1319 29.504 16.8054 29.1417 16.5705 28.7475C17.096 29.3686 18.1511 29.9818 18.4099 30.4555ZM18.3183 24.0653C17.3508 25.9446 15.5791 27.4734 15.5592 27.4535C15.5393 27.4774 13.7676 25.9446 12.8001 24.0653C11.8327 22.19 11.2116 19.2398 11.1797 17.8303C11.1439 16.4209 11.4225 15.8197 11.4225 15.8197C11.4225 15.8197 12.6329 15.752 13.6004 15.4176C14.4205 15.1349 15.3124 14.4143 15.5632 14.2032C15.814 14.4143 16.7059 15.131 17.53 15.4176C18.4935 15.7561 19.7038 15.8197 19.7038 15.8197C19.7038 15.8197 19.9785 16.4249 19.9427 17.8303C19.9029 19.2398 19.2818 22.19 18.3183 24.0653Z" fill="#969696"/>
<path d="M42.133 18.3711C42.5053 18.3711 42.8822 18.3951 43.2629 18.4443L43.6457 18.502C44.147 18.5882 44.5968 18.7437 45.0002 18.9697C45.3936 19.1903 45.7144 19.4936 45.9699 19.8857V19.8848C46.2102 20.2574 46.343 20.7541 46.343 21.3896C46.3429 21.9128 46.2511 22.3553 46.0783 22.7246L46.0002 22.8779C45.7983 23.2373 45.5371 23.5392 45.2199 23.7812L45.0803 23.8809C44.7418 24.1095 44.356 24.2872 43.924 24.4102L43.7355 24.46C43.2197 24.5843 42.6847 24.6474 42.133 24.6475L41.8664 24.6396C41.7413 24.6342 41.6104 24.6288 41.4738 24.626H41.4748C41.3449 24.6207 41.2169 24.6126 41.0949 24.6045H41.0959C40.9641 24.593 40.8875 24.5854 40.842 24.5771L40.5305 24.5205V28.5195H39.5539V18.5615C39.7971 18.516 40.0536 18.4792 40.3234 18.4521L40.6808 18.4229H40.6818C41.1734 18.3875 41.6548 18.3711 42.133 18.3711ZM42.1769 19.166L41.3781 19.1797H41.3752C41.1121 19.191 40.8913 19.2175 40.7228 19.2637L40.5285 19.3164V23.6924L40.6965 23.7578C40.7871 23.793 40.9049 23.8076 41.0275 23.8135L41.3771 23.835H41.3781C41.5149 23.8468 41.6414 23.8496 41.7609 23.8496H42.0256C42.306 23.8496 42.5851 23.8339 42.8615 23.8018L43.1369 23.7646C43.4214 23.7202 43.6872 23.645 43.9367 23.5361L44.1808 23.415H44.1828C44.5085 23.2333 44.7729 22.9803 44.9728 22.6523L44.9719 22.6514C45.1806 22.3113 45.2756 21.8884 45.2756 21.4004C45.2756 21.0206 45.2039 20.6831 45.048 20.3955L44.9758 20.2754L44.9748 20.2744L44.8996 20.168C44.7172 19.9261 44.4908 19.7284 44.2189 19.5801H44.218C43.9942 19.457 43.7504 19.3645 43.4904 19.3008L43.2238 19.2461L43.2189 19.2451L42.9572 19.2119C42.6959 19.1823 42.4353 19.166 42.1769 19.166Z" fill="#969696" stroke="#969696" stroke-width="0.528778"/>
<path d="M50.8115 20.9111C51.348 20.9111 51.818 20.9875 52.2227 21.1367L52.3916 21.2051C52.8398 21.4023 53.2089 21.6713 53.5029 22.0156C53.7624 22.3195 53.9637 22.6695 54.1084 23.0723L54.167 23.248C54.3149 23.7254 54.3887 24.2547 54.3887 24.835C54.3887 25.375 54.324 25.8623 54.1973 26.2969L54.1387 26.4795C53.9935 26.9015 53.7969 27.2647 53.5488 27.5703L53.4395 27.6982C53.1773 27.9868 52.8624 28.2178 52.4932 28.3887L52.332 28.459C51.8917 28.6346 51.3859 28.7256 50.8115 28.7256C50.2548 28.7256 49.776 28.649 49.3701 28.5L49.2002 28.4316C48.7517 28.2342 48.3866 27.968 48.0986 27.6299C47.8438 27.3308 47.6429 26.9817 47.5 26.5811L47.4424 26.4062V26.4043L47.3887 26.2227C47.2738 25.7952 47.2178 25.3325 47.2178 24.835C47.2178 24.2842 47.2802 23.7885 47.4033 23.3477L47.46 23.1621C47.6003 22.7366 47.7963 22.3724 48.0469 22.0674L48.1572 21.9404L48.1582 21.9395C48.4227 21.6507 48.7396 21.4191 49.1113 21.248L49.2744 21.1787C49.7142 21.0033 50.2254 20.9111 50.8115 20.9111ZM50.8252 21.5596C50.0429 21.5596 49.4051 21.7976 48.9473 22.2998L48.8594 22.4023C48.3986 22.9634 48.1943 23.793 48.1943 24.835C48.1943 25.1286 48.2182 25.418 48.2686 25.7041L48.3281 25.9893C48.3971 26.2782 48.4963 26.5452 48.6299 26.792L48.7754 27.0322C48.962 27.3108 49.1946 27.5371 49.4717 27.7168L49.5928 27.791C49.9396 27.9901 50.3538 28.082 50.8252 28.082C51.6593 28.082 52.3253 27.8111 52.7734 27.2354C53.2118 26.6722 53.4092 25.8583 53.4092 24.8379C53.4092 24.5309 53.3852 24.2305 53.335 23.9375L53.2754 23.6465V23.6455C53.2069 23.3561 53.1095 23.0871 52.9785 22.8418L52.8359 22.6045C52.6544 22.3336 52.426 22.1079 52.1504 21.9268L52.0293 21.8516L52.0273 21.8506L51.8955 21.7812C51.5805 21.6307 51.2205 21.5596 50.8252 21.5596Z" fill="#969696" stroke="#969696" stroke-width="0.528778"/>
<path d="M59.6172 20.9111C60.1336 20.9111 60.5735 20.9552 60.9404 21.0449V21.0459C61.2287 21.117 61.493 21.2008 61.7324 21.2949L61.5391 21.9053C61.4085 21.8496 61.2743 21.7993 61.1357 21.7559L60.8906 21.6865C60.5536 21.6007 60.19 21.5576 59.8018 21.5576C58.9315 21.5576 58.2366 21.8286 57.7676 22.4082C57.3072 22.9774 57.0996 23.8018 57.0996 24.835C57.0996 25.137 57.1249 25.4325 57.1787 25.7207L57.2422 26.0068C57.3155 26.2966 57.4218 26.5648 57.5645 26.8096L57.7197 27.0469C57.917 27.317 58.1656 27.543 58.4629 27.7217L58.5938 27.7959C58.9654 27.9912 59.4071 28.082 59.9062 28.082C60.348 28.082 60.7493 28.0214 61.0986 27.8926L61.0977 27.8916C61.3111 27.8131 61.5037 27.7221 61.6777 27.6211L61.9053 28.1357C61.7085 28.2563 61.4949 28.3627 61.2588 28.4463L60.9375 28.5449H60.9355C60.486 28.6651 60.0139 28.7256 59.5127 28.7256C58.9552 28.7256 58.4817 28.6514 58.0859 28.5098L57.9219 28.4443C57.5444 28.2821 57.2355 28.0667 56.9883 27.7979L56.8867 27.6797C56.6228 27.3535 56.428 26.9518 56.3037 26.4707H56.3047C56.1815 25.983 56.1172 25.4383 56.1172 24.835C56.1172 23.5415 56.4303 22.5797 57.0205 21.9141L57.0215 21.915C57.6062 21.2582 58.4593 20.9111 59.6172 20.9111Z" fill="#969696" stroke="#969696" stroke-width="0.528778"/>
<path d="M66.6337 20.9111C67.0214 20.9111 67.366 20.9366 67.6689 20.9873L67.9579 21.0459C68.2464 21.117 68.5104 21.2007 68.7499 21.2949L68.5566 21.9053C68.4258 21.8495 68.2911 21.7994 68.1523 21.7559L67.9072 21.6865C67.5698 21.6008 67.2065 21.5576 66.8183 21.5576C65.9481 21.5577 65.2531 21.8286 64.7841 22.4082C64.3237 22.9774 64.1162 23.8018 64.1161 24.835C64.1161 25.1371 64.1424 25.4324 64.1962 25.7207L64.2587 26.0068C64.3565 26.3933 64.5133 26.7415 64.7363 27.0469V27.0459C64.9322 27.3176 65.183 27.5443 65.4824 27.7227L65.6132 27.7959H65.6142C65.9862 27.991 66.4265 28.082 66.9257 28.082C67.3674 28.082 67.7688 28.0214 68.1181 27.8926L68.1171 27.8916C68.3293 27.8135 68.5212 27.7227 68.6943 27.6221L68.9218 28.1357C68.725 28.2563 68.5115 28.3627 68.2753 28.4463L67.954 28.5449H67.9531C67.5034 28.6652 67.0306 28.7256 66.5292 28.7256C65.972 28.7256 65.499 28.6513 65.1035 28.5098L64.9384 28.4443C64.5612 28.2822 64.2529 28.0665 64.0058 27.7979L63.9033 27.6797C63.6392 27.3536 63.4447 26.9519 63.3203 26.4707H63.3212C63.1978 25.9831 63.1337 25.4383 63.1337 24.835C63.1337 23.5412 63.4486 22.5798 64.039 21.9141L64.038 21.9131C64.6227 21.2567 65.4764 20.9112 66.6337 20.9111Z" fill="#969696" stroke="#969696" stroke-width="0.528778"/>
<path d="M71.7828 21.1343V25.5171L71.6783 26.9038L71.6568 27.188H72.2681L72.3414 27.0454L73.0259 25.7241L76.5601 21.1343H77.2505V28.5112H76.3922V24.2368L76.5963 22.73L76.6363 22.4302H76.0054L75.9322 22.5757L75.2076 24.0239L71.6002 28.5142H70.9244V21.1343H71.7828Z" fill="#969696" stroke="#969696" stroke-width="0.528778"/>
<path d="M80.6827 21.1343V25.5298L80.5782 26.9038L80.5567 27.188H81.169L81.2422 27.0454L81.9258 25.7241L85.46 21.1343H86.1505V28.5112H85.2921V24.2603L85.4991 22.73L85.5401 22.4302H84.9083L84.835 22.5757L84.1114 24.0239L80.504 28.5142H79.8272V21.1343H80.6827Z" fill="#969696" stroke="#969696" stroke-width="0.528778"/>
<path d="M47.7914 9.42171L47.9537 7.8641H47.8739L47.2602 9.28686L44.3239 13.9734H43.9193L40.8069 9.2731L40.2262 7.8641H40.1464L40.3721 9.40519V16.3897H39.1144V6.00928H40.1134L43.6469 11.3178L44.178 12.4736H44.2111L44.7119 11.2875L48.083 6.00928H49.1316V16.3869H47.7914V9.42171Z" fill="#969696" stroke="#969696" stroke-width="0.295698" stroke-miterlimit="10"/>
<path d="M56.777 12.0029L56.8261 11.0837H56.777L56.1164 12.0332L52.4866 16.3923H51.7435V8.97852H53.0342V13.5L52.9846 14.3751H53.0479L53.6781 13.4559L57.3079 8.97852H58.0645V16.3923H56.7743V12.0029H56.777Z" fill="#969696" stroke="#969696" stroke-width="0.295698" stroke-miterlimit="10"/>
<path d="M65.4875 13.1147H61.841V16.3923H60.5503V8.97852H61.841V12.0772H65.4875V8.97852H66.7782V16.3923H65.4875V13.1147Z" fill="#969696" stroke="#969696" stroke-width="0.295698" stroke-miterlimit="10"/>
<path d="M76.5041 18.2746H75.6316L75.3894 16.3923H69.2609V8.97852H70.5516V15.3548H74.0521V8.97852H75.3429V15.3548H76.5041V18.2746Z" fill="#969696" stroke="#969696" stroke-width="0.295698" stroke-miterlimit="10"/>
<path d="M83.1354 12.0029L83.1851 11.0837H83.1354L82.4749 12.0332L78.8449 16.3923H78.1019V8.97852H79.3927V13.5L79.343 14.3751H79.4091L80.0394 13.4559L83.6694 8.97852H84.4261V16.3923H83.1354V12.0029Z" fill="#969696" stroke="#969696" stroke-width="0.295698" stroke-miterlimit="10"/>
<path d="M90.5358 16.4474C90.3513 16.508 90.1614 16.541 89.9637 16.552C89.7654 16.563 89.5835 16.5658 89.4243 16.5658C88.4445 16.5658 87.6931 16.2493 87.1649 15.6164C86.6366 14.9834 86.3749 14.0065 86.3749 12.6801C86.3749 11.4141 86.6641 10.4619 87.2474 9.81799C87.828 9.17678 88.6671 8.85481 89.7628 8.85481C90.0626 8.85481 90.3211 8.87407 90.5358 8.91535V6.00928H91.7631V8.9291C91.9561 8.89884 92.129 8.87957 92.2808 8.86856C92.432 8.85756 92.5753 8.85481 92.7155 8.85481C93.7804 8.85481 94.5815 9.13826 95.1177 9.70791C95.6544 10.2776 95.9241 11.2187 95.9241 12.5314C95.9241 13.1534 95.8527 13.7148 95.7067 14.2129C95.5608 14.711 95.3493 15.1348 95.0685 15.4815C94.7877 15.8283 94.4467 16.0952 94.0448 16.2824C93.6403 16.4695 93.175 16.563 92.6494 16.563C92.5531 16.563 92.4098 16.5548 92.2226 16.541C92.0354 16.5273 91.8816 16.4997 91.7631 16.4585V19.3508H90.5358V16.4474ZM89.7458 15.5889C89.8754 15.5889 90.0049 15.5834 90.134 15.5751C90.2635 15.5641 90.4036 15.5448 90.5522 15.5146V9.89504C90.4232 9.87578 90.3021 9.85927 90.189 9.85101C90.0763 9.84 89.9388 9.83725 89.7791 9.83725C89.1129 9.83725 88.5931 10.0657 88.2214 10.528C87.8502 10.9876 87.6656 11.7058 87.6656 12.6856C87.6656 13.1011 87.7069 13.4863 87.7867 13.8414C87.8666 14.1964 87.9929 14.5074 88.1664 14.7688C88.3372 15.0302 88.5571 15.2338 88.8189 15.3769C89.0801 15.5173 89.391 15.5889 89.7458 15.5889ZM92.4706 9.8345C92.3411 9.8345 92.2258 9.83725 92.1237 9.84276C92.0217 9.84826 91.8953 9.87028 91.7441 9.9088V15.5421C91.8514 15.5613 91.9725 15.5751 92.1074 15.5779C92.2422 15.5834 92.3908 15.5861 92.5505 15.5861C93.2384 15.5861 93.7582 15.3247 94.1077 14.799C94.4572 14.2762 94.6333 13.5194 94.6333 12.5314C94.6333 11.6921 94.4742 11.0316 94.1574 10.5528C93.8412 10.0767 93.2797 9.8345 92.4706 9.8345Z" fill="#969696" stroke="#969696" stroke-width="0.295698" stroke-miterlimit="10"/>
<path d="M97.8779 8.97526H98.7641L99.0063 9.86415H99.0698C99.3172 9.5174 99.6366 9.25321 100.03 9.07158C100.423 8.88995 100.872 8.79639 101.376 8.79639C102.452 8.79639 103.252 9.08809 103.778 9.67151C104.304 10.2549 104.568 11.2099 104.568 12.5336C104.568 13.1555 104.48 13.7169 104.301 14.215C104.122 14.7131 103.874 15.1369 103.55 15.4837C103.228 15.8304 102.837 16.0973 102.38 16.2845C101.924 16.4716 101.414 16.5652 100.855 16.5652C100.457 16.5652 100.143 16.5431 99.9116 16.4991C99.6805 16.4551 99.4299 16.3781 99.1602 16.268V19.3529H97.8694V8.97526H97.8779ZM101.136 9.83388C100.588 9.83388 100.154 9.96597 99.8376 10.2274C99.5208 10.4888 99.2982 10.8879 99.1686 11.4218V15.0984C99.3611 15.236 99.5816 15.3433 99.8291 15.4176C100.077 15.4919 100.404 15.5277 100.814 15.5277C101.557 15.5277 102.146 15.2745 102.581 14.7654C103.016 14.2563 103.233 13.5077 103.233 12.5198C103.233 12.1153 103.195 11.7465 103.12 11.4163C103.046 11.086 102.925 10.8026 102.757 10.5714C102.589 10.3402 102.375 10.1586 102.113 10.0293C101.849 9.89992 101.524 9.83388 101.136 9.83388Z" fill="#969696" stroke="#969696" stroke-width="0.295698" stroke-miterlimit="10"/>
<path d="M107.893 11.8103C108.152 11.7717 108.399 11.7442 108.636 11.7277C108.872 11.7139 109.098 11.7057 109.313 11.7057C109.861 11.7057 110.32 11.7635 110.691 11.8763C111.063 11.9892 111.36 12.146 111.586 12.3441C111.811 12.5423 111.971 12.7762 112.062 13.0487C112.153 13.3211 112.199 13.6101 112.199 13.9155C112.199 14.8154 111.927 15.4676 111.385 15.8722C110.843 16.2767 109.962 16.4803 108.749 16.4803C108.061 16.4803 107.345 16.4501 106.602 16.3923V8.97852H107.893V11.8103ZM107.893 15.3548C108.289 15.4153 108.671 15.4429 109.037 15.4429C109.715 15.4429 110.188 15.3218 110.458 15.0796C110.727 14.8374 110.862 14.4935 110.862 14.0504C110.862 13.6541 110.73 13.3294 110.466 13.0707C110.202 12.8148 109.742 12.6854 109.087 12.6854C108.903 12.6854 108.705 12.6909 108.49 12.6992C108.275 12.7102 108.077 12.7377 107.893 12.7873V15.3548ZM113.474 8.97852H114.765V16.3923H113.474V8.97852Z" fill="#969696" stroke="#969696" stroke-width="0.295698" stroke-miterlimit="10"/>
</svg>
