<svg width="27" height="23" viewBox="0 0 27 23" fill="none" xmlns="http://www.w3.org/2000/svg">
<path fill-rule="evenodd" clip-rule="evenodd" d="M16.0263 4.0605C13.7205 5.01962 9.11186 7.00466 2.20061 10.0158C1.07831 10.4622 0.490409 10.8989 0.436901 11.3256C0.346456 12.0473 1.24998 12.3313 2.48031 12.7182C2.64769 12.7708 2.82108 12.8254 2.99884 12.883C4.20931 13.2765 5.83763 13.7369 6.68411 13.7552C7.45195 13.7718 8.30896 13.4553 9.25511 12.8054C15.7126 8.44656 19.0459 6.24341 19.255 6.19576C19.4027 6.16233 19.6073 6.12013 19.746 6.24341C19.8847 6.36669 19.8709 6.59997 19.8562 6.66256C19.7669 7.04425 16.2202 10.3415 14.3848 12.0478C13.8127 12.5798 13.4068 12.9569 13.3238 13.0432C13.138 13.2362 12.9485 13.4188 12.7665 13.5942C11.642 14.6784 10.7985 15.4913 12.8132 16.8189C13.7814 17.4569 14.5559 17.9844 15.3288 18.5107C16.1728 19.0856 17.0146 19.6589 18.104 20.3729C18.3814 20.5548 18.6464 20.7437 18.9046 20.9277C19.8868 21.628 20.7692 22.2572 21.8595 22.1567C22.493 22.0986 23.1473 21.5028 23.4797 19.7262C24.2652 15.5276 25.809 6.43022 26.1658 2.68159C26.1971 2.35317 26.1577 1.93283 26.1262 1.74832C26.0944 1.5638 26.0285 1.30088 25.7886 1.10626C25.5046 0.875779 25.0662 0.82718 24.8699 0.830475C23.9783 0.846359 22.6101 1.32205 16.0263 4.0605Z" fill="#C8C8C8"/>
</svg>
