<svg width="24" height="23" viewBox="0 0 24 23" fill="none" xmlns="http://www.w3.org/2000/svg">
<path fill-rule="evenodd" clip-rule="evenodd" d="M18.4561 16.1522C18.184 16.9223 17.1025 17.5594 16.2401 17.7457C15.6497 17.8711 14.8798 17.9702 12.2856 16.8952C9.37202 15.6881 5.32616 11.3882 5.32616 8.5268C5.32616 7.07012 6.16604 5.3739 7.6347 5.3739C8.34137 5.3739 8.49716 5.38768 8.7297 5.9455C9.00176 6.60271 9.66554 8.22191 9.74456 8.3879C10.0708 9.06881 9.41266 9.46742 8.93515 10.0603C8.78275 10.2387 8.61005 10.4316 8.80308 10.7636C8.99499 11.0888 9.65876 12.1706 10.6341 13.039C11.8939 14.1614 12.9156 14.5198 13.2813 14.6722C13.5534 14.7851 13.8785 14.7588 14.0772 14.5465C14.3289 14.2744 14.6416 13.8229 14.9599 13.378C15.1846 13.0595 15.4702 13.0198 15.7693 13.1327C15.9714 13.2027 18.5396 14.3954 18.648 14.5862C18.7281 14.7251 18.7281 15.3821 18.4561 16.1522ZM11.8872 0.211304H11.8815C5.65804 0.211304 0.596191 5.27468 0.596191 11.5C0.596191 13.9685 1.39205 16.2586 2.74557 18.1161L1.33899 22.3108L5.67725 20.9245C7.46199 22.1057 9.59216 22.7887 11.8872 22.7887C18.1106 22.7887 23.1736 17.7253 23.1736 11.5C23.1736 5.27468 18.1106 0.211304 11.8872 0.211304Z" fill="#C8C8C8"/>
</svg>
